<mxfile host="app.diagrams.net" agent="Mozilla/5.0 (Windows NT 10.0; Win64; x64) AppleWebKit/537.36 (KHTML, like Gecko) Chrome/133.0.0.0 Safari/537.36" version="26.1.0">
  <diagram name="Page-1" id="w0n4qdKBBSs86dPPn1iK">
    <mxGraphModel dx="6447" dy="-6127" grid="1" gridSize="10" guides="1" tooltips="1" connect="1" arrows="1" fold="1" page="1" pageScale="1" pageWidth="850" pageHeight="1100" math="0" shadow="0">
      <root>
        <mxCell id="0" />
        <mxCell id="1" parent="0" />
        <mxCell id="7hg7fwCNh3IDwbxx84Ut-1" value="Usuario" style="swimlane;fontStyle=1;align=center;verticalAlign=top;childLayout=stackLayout;horizontal=1;startSize=26.285714285714285;horizontalStack=0;resizeParent=1;resizeParentMax=0;resizeLast=0;collapsible=0;marginBottom=0;" vertex="1" parent="1">
          <mxGeometry x="7415" y="10510" width="311" height="736.2857142857142" as="geometry" />
        </mxCell>
        <mxCell id="7hg7fwCNh3IDwbxx84Ut-2" value="+int id" style="text;strokeColor=none;fillColor=none;align=left;verticalAlign=top;spacingLeft=4;spacingRight=4;overflow=hidden;rotatable=0;points=[[0,0.5],[1,0.5]];portConstraint=eastwest;" vertex="1" parent="7hg7fwCNh3IDwbxx84Ut-1">
          <mxGeometry y="26.285714285714285" width="311" height="26" as="geometry" />
        </mxCell>
        <mxCell id="7hg7fwCNh3IDwbxx84Ut-3" value="+string nome" style="text;strokeColor=none;fillColor=none;align=left;verticalAlign=top;spacingLeft=4;spacingRight=4;overflow=hidden;rotatable=0;points=[[0,0.5],[1,0.5]];portConstraint=eastwest;" vertex="1" parent="7hg7fwCNh3IDwbxx84Ut-1">
          <mxGeometry y="52.285714285714285" width="311" height="26" as="geometry" />
        </mxCell>
        <mxCell id="7hg7fwCNh3IDwbxx84Ut-4" value="+string sobrenome" style="text;strokeColor=none;fillColor=none;align=left;verticalAlign=top;spacingLeft=4;spacingRight=4;overflow=hidden;rotatable=0;points=[[0,0.5],[1,0.5]];portConstraint=eastwest;" vertex="1" parent="7hg7fwCNh3IDwbxx84Ut-1">
          <mxGeometry y="78.28571428571428" width="311" height="26" as="geometry" />
        </mxCell>
        <mxCell id="7hg7fwCNh3IDwbxx84Ut-5" value="+string telefone" style="text;strokeColor=none;fillColor=none;align=left;verticalAlign=top;spacingLeft=4;spacingRight=4;overflow=hidden;rotatable=0;points=[[0,0.5],[1,0.5]];portConstraint=eastwest;" vertex="1" parent="7hg7fwCNh3IDwbxx84Ut-1">
          <mxGeometry y="104.28571428571428" width="311" height="26" as="geometry" />
        </mxCell>
        <mxCell id="7hg7fwCNh3IDwbxx84Ut-6" value="+string email" style="text;strokeColor=none;fillColor=none;align=left;verticalAlign=top;spacingLeft=4;spacingRight=4;overflow=hidden;rotatable=0;points=[[0,0.5],[1,0.5]];portConstraint=eastwest;" vertex="1" parent="7hg7fwCNh3IDwbxx84Ut-1">
          <mxGeometry y="130.28571428571428" width="311" height="26" as="geometry" />
        </mxCell>
        <mxCell id="7hg7fwCNh3IDwbxx84Ut-7" value="+string senha_hash" style="text;strokeColor=none;fillColor=none;align=left;verticalAlign=top;spacingLeft=4;spacingRight=4;overflow=hidden;rotatable=0;points=[[0,0.5],[1,0.5]];portConstraint=eastwest;" vertex="1" parent="7hg7fwCNh3IDwbxx84Ut-1">
          <mxGeometry y="156.28571428571428" width="311" height="26" as="geometry" />
        </mxCell>
        <mxCell id="7hg7fwCNh3IDwbxx84Ut-8" value="+string salt" style="text;strokeColor=none;fillColor=none;align=left;verticalAlign=top;spacingLeft=4;spacingRight=4;overflow=hidden;rotatable=0;points=[[0,0.5],[1,0.5]];portConstraint=eastwest;" vertex="1" parent="7hg7fwCNh3IDwbxx84Ut-1">
          <mxGeometry y="182.28571428571428" width="311" height="26" as="geometry" />
        </mxCell>
        <mxCell id="7hg7fwCNh3IDwbxx84Ut-9" value="+date data_nascimento" style="text;strokeColor=none;fillColor=none;align=left;verticalAlign=top;spacingLeft=4;spacingRight=4;overflow=hidden;rotatable=0;points=[[0,0.5],[1,0.5]];portConstraint=eastwest;" vertex="1" parent="7hg7fwCNh3IDwbxx84Ut-1">
          <mxGeometry y="208.28571428571428" width="311" height="26" as="geometry" />
        </mxCell>
        <mxCell id="7hg7fwCNh3IDwbxx84Ut-10" value="+string foto_perfil" style="text;strokeColor=none;fillColor=none;align=left;verticalAlign=top;spacingLeft=4;spacingRight=4;overflow=hidden;rotatable=0;points=[[0,0.5],[1,0.5]];portConstraint=eastwest;" vertex="1" parent="7hg7fwCNh3IDwbxx84Ut-1">
          <mxGeometry y="234.28571428571428" width="311" height="26" as="geometry" />
        </mxCell>
        <mxCell id="7hg7fwCNh3IDwbxx84Ut-11" value="+string status" style="text;strokeColor=none;fillColor=none;align=left;verticalAlign=top;spacingLeft=4;spacingRight=4;overflow=hidden;rotatable=0;points=[[0,0.5],[1,0.5]];portConstraint=eastwest;" vertex="1" parent="7hg7fwCNh3IDwbxx84Ut-1">
          <mxGeometry y="260.2857142857143" width="311" height="26" as="geometry" />
        </mxCell>
        <mxCell id="7hg7fwCNh3IDwbxx84Ut-12" value="+string tipo" style="text;strokeColor=none;fillColor=none;align=left;verticalAlign=top;spacingLeft=4;spacingRight=4;overflow=hidden;rotatable=0;points=[[0,0.5],[1,0.5]];portConstraint=eastwest;" vertex="1" parent="7hg7fwCNh3IDwbxx84Ut-1">
          <mxGeometry y="286.2857142857143" width="311" height="26" as="geometry" />
        </mxCell>
        <mxCell id="7hg7fwCNh3IDwbxx84Ut-13" value="+boolean verificacao_email" style="text;strokeColor=none;fillColor=none;align=left;verticalAlign=top;spacingLeft=4;spacingRight=4;overflow=hidden;rotatable=0;points=[[0,0.5],[1,0.5]];portConstraint=eastwest;" vertex="1" parent="7hg7fwCNh3IDwbxx84Ut-1">
          <mxGeometry y="312.2857142857143" width="311" height="26" as="geometry" />
        </mxCell>
        <mxCell id="7hg7fwCNh3IDwbxx84Ut-14" value="+boolean verificacao_sms" style="text;strokeColor=none;fillColor=none;align=left;verticalAlign=top;spacingLeft=4;spacingRight=4;overflow=hidden;rotatable=0;points=[[0,0.5],[1,0.5]];portConstraint=eastwest;" vertex="1" parent="7hg7fwCNh3IDwbxx84Ut-1">
          <mxGeometry y="338.2857142857143" width="311" height="26" as="geometry" />
        </mxCell>
        <mxCell id="7hg7fwCNh3IDwbxx84Ut-15" value="+timestamp ultimo_login" style="text;strokeColor=none;fillColor=none;align=left;verticalAlign=top;spacingLeft=4;spacingRight=4;overflow=hidden;rotatable=0;points=[[0,0.5],[1,0.5]];portConstraint=eastwest;" vertex="1" parent="7hg7fwCNh3IDwbxx84Ut-1">
          <mxGeometry y="364.2857142857143" width="311" height="26" as="geometry" />
        </mxCell>
        <mxCell id="7hg7fwCNh3IDwbxx84Ut-16" value="+timestamp data_criacao" style="text;strokeColor=none;fillColor=none;align=left;verticalAlign=top;spacingLeft=4;spacingRight=4;overflow=hidden;rotatable=0;points=[[0,0.5],[1,0.5]];portConstraint=eastwest;" vertex="1" parent="7hg7fwCNh3IDwbxx84Ut-1">
          <mxGeometry y="390.2857142857143" width="311" height="26" as="geometry" />
        </mxCell>
        <mxCell id="7hg7fwCNh3IDwbxx84Ut-17" value="+timestamp data_atualizacao" style="text;strokeColor=none;fillColor=none;align=left;verticalAlign=top;spacingLeft=4;spacingRight=4;overflow=hidden;rotatable=0;points=[[0,0.5],[1,0.5]];portConstraint=eastwest;" vertex="1" parent="7hg7fwCNh3IDwbxx84Ut-1">
          <mxGeometry y="416.2857142857143" width="311" height="26" as="geometry" />
        </mxCell>
        <mxCell id="7hg7fwCNh3IDwbxx84Ut-18" value="+string codigo_sms" style="text;strokeColor=none;fillColor=none;align=left;verticalAlign=top;spacingLeft=4;spacingRight=4;overflow=hidden;rotatable=0;points=[[0,0.5],[1,0.5]];portConstraint=eastwest;" vertex="1" parent="7hg7fwCNh3IDwbxx84Ut-1">
          <mxGeometry y="442.2857142857143" width="311" height="26" as="geometry" />
        </mxCell>
        <mxCell id="7hg7fwCNh3IDwbxx84Ut-19" value="+string codigo_email" style="text;strokeColor=none;fillColor=none;align=left;verticalAlign=top;spacingLeft=4;spacingRight=4;overflow=hidden;rotatable=0;points=[[0,0.5],[1,0.5]];portConstraint=eastwest;" vertex="1" parent="7hg7fwCNh3IDwbxx84Ut-1">
          <mxGeometry y="468.2857142857143" width="311" height="26" as="geometry" />
        </mxCell>
        <mxCell id="7hg7fwCNh3IDwbxx84Ut-20" value="+timestamp expiracao_senha" style="text;strokeColor=none;fillColor=none;align=left;verticalAlign=top;spacingLeft=4;spacingRight=4;overflow=hidden;rotatable=0;points=[[0,0.5],[1,0.5]];portConstraint=eastwest;" vertex="1" parent="7hg7fwCNh3IDwbxx84Ut-1">
          <mxGeometry y="494.2857142857143" width="311" height="26" as="geometry" />
        </mxCell>
        <mxCell id="7hg7fwCNh3IDwbxx84Ut-21" value="+boolean autenticacao_dois_fatores" style="text;strokeColor=none;fillColor=none;align=left;verticalAlign=top;spacingLeft=4;spacingRight=4;overflow=hidden;rotatable=0;points=[[0,0.5],[1,0.5]];portConstraint=eastwest;" vertex="1" parent="7hg7fwCNh3IDwbxx84Ut-1">
          <mxGeometry y="520.2857142857142" width="311" height="26" as="geometry" />
        </mxCell>
        <mxCell id="7hg7fwCNh3IDwbxx84Ut-22" style="line;strokeWidth=1;fillColor=none;align=left;verticalAlign=middle;spacingTop=-1;spacingLeft=3;spacingRight=3;rotatable=0;labelPosition=right;points=[];portConstraint=eastwest;strokeColor=inherit;" vertex="1" parent="7hg7fwCNh3IDwbxx84Ut-1">
          <mxGeometry y="546.2857142857142" width="311" height="8" as="geometry" />
        </mxCell>
        <mxCell id="7hg7fwCNh3IDwbxx84Ut-23" value="+Login()" style="text;strokeColor=none;fillColor=none;align=left;verticalAlign=top;spacingLeft=4;spacingRight=4;overflow=hidden;rotatable=0;points=[[0,0.5],[1,0.5]];portConstraint=eastwest;" vertex="1" parent="7hg7fwCNh3IDwbxx84Ut-1">
          <mxGeometry y="554.2857142857142" width="311" height="26" as="geometry" />
        </mxCell>
        <mxCell id="7hg7fwCNh3IDwbxx84Ut-24" value="+ConfirmarEmail()" style="text;strokeColor=none;fillColor=none;align=left;verticalAlign=top;spacingLeft=4;spacingRight=4;overflow=hidden;rotatable=0;points=[[0,0.5],[1,0.5]];portConstraint=eastwest;" vertex="1" parent="7hg7fwCNh3IDwbxx84Ut-1">
          <mxGeometry y="580.2857142857142" width="311" height="26" as="geometry" />
        </mxCell>
        <mxCell id="7hg7fwCNh3IDwbxx84Ut-25" value="+ConfirmarSMS()" style="text;strokeColor=none;fillColor=none;align=left;verticalAlign=top;spacingLeft=4;spacingRight=4;overflow=hidden;rotatable=0;points=[[0,0.5],[1,0.5]];portConstraint=eastwest;" vertex="1" parent="7hg7fwCNh3IDwbxx84Ut-1">
          <mxGeometry y="606.2857142857142" width="311" height="26" as="geometry" />
        </mxCell>
        <mxCell id="7hg7fwCNh3IDwbxx84Ut-26" value="+AtualizarPerfil()" style="text;strokeColor=none;fillColor=none;align=left;verticalAlign=top;spacingLeft=4;spacingRight=4;overflow=hidden;rotatable=0;points=[[0,0.5],[1,0.5]];portConstraint=eastwest;" vertex="1" parent="7hg7fwCNh3IDwbxx84Ut-1">
          <mxGeometry y="632.2857142857142" width="311" height="26" as="geometry" />
        </mxCell>
        <mxCell id="7hg7fwCNh3IDwbxx84Ut-27" value="+AtivarAutenticacaoDoisFatores()" style="text;strokeColor=none;fillColor=none;align=left;verticalAlign=top;spacingLeft=4;spacingRight=4;overflow=hidden;rotatable=0;points=[[0,0.5],[1,0.5]];portConstraint=eastwest;" vertex="1" parent="7hg7fwCNh3IDwbxx84Ut-1">
          <mxGeometry y="658.2857142857142" width="311" height="26" as="geometry" />
        </mxCell>
        <mxCell id="7hg7fwCNh3IDwbxx84Ut-28" value="+GerarCodigoVerificacao()" style="text;strokeColor=none;fillColor=none;align=left;verticalAlign=top;spacingLeft=4;spacingRight=4;overflow=hidden;rotatable=0;points=[[0,0.5],[1,0.5]];portConstraint=eastwest;" vertex="1" parent="7hg7fwCNh3IDwbxx84Ut-1">
          <mxGeometry y="684.2857142857142" width="311" height="26" as="geometry" />
        </mxCell>
        <mxCell id="7hg7fwCNh3IDwbxx84Ut-29" value="+VerificarCodigo()" style="text;strokeColor=none;fillColor=none;align=left;verticalAlign=top;spacingLeft=4;spacingRight=4;overflow=hidden;rotatable=0;points=[[0,0.5],[1,0.5]];portConstraint=eastwest;" vertex="1" parent="7hg7fwCNh3IDwbxx84Ut-1">
          <mxGeometry y="710.2857142857142" width="311" height="26" as="geometry" />
        </mxCell>
        <mxCell id="7hg7fwCNh3IDwbxx84Ut-30" value="PasswordResetToken" style="swimlane;fontStyle=1;align=center;verticalAlign=top;childLayout=stackLayout;horizontal=1;startSize=32;horizontalStack=0;resizeParent=1;resizeParentMax=0;resizeLast=0;collapsible=0;marginBottom=0;" vertex="1" parent="1">
          <mxGeometry x="6029" y="11399" width="301" height="208" as="geometry" />
        </mxCell>
        <mxCell id="7hg7fwCNh3IDwbxx84Ut-31" value="+int id" style="text;strokeColor=none;fillColor=none;align=left;verticalAlign=top;spacingLeft=4;spacingRight=4;overflow=hidden;rotatable=0;points=[[0,0.5],[1,0.5]];portConstraint=eastwest;" vertex="1" parent="7hg7fwCNh3IDwbxx84Ut-30">
          <mxGeometry y="32" width="301" height="32" as="geometry" />
        </mxCell>
        <mxCell id="7hg7fwCNh3IDwbxx84Ut-32" value="+int usuario_id" style="text;strokeColor=none;fillColor=none;align=left;verticalAlign=top;spacingLeft=4;spacingRight=4;overflow=hidden;rotatable=0;points=[[0,0.5],[1,0.5]];portConstraint=eastwest;" vertex="1" parent="7hg7fwCNh3IDwbxx84Ut-30">
          <mxGeometry y="64" width="301" height="32" as="geometry" />
        </mxCell>
        <mxCell id="7hg7fwCNh3IDwbxx84Ut-33" value="+string token" style="text;strokeColor=none;fillColor=none;align=left;verticalAlign=top;spacingLeft=4;spacingRight=4;overflow=hidden;rotatable=0;points=[[0,0.5],[1,0.5]];portConstraint=eastwest;" vertex="1" parent="7hg7fwCNh3IDwbxx84Ut-30">
          <mxGeometry y="96" width="301" height="32" as="geometry" />
        </mxCell>
        <mxCell id="7hg7fwCNh3IDwbxx84Ut-34" value="+timestamp data_expiracao" style="text;strokeColor=none;fillColor=none;align=left;verticalAlign=top;spacingLeft=4;spacingRight=4;overflow=hidden;rotatable=0;points=[[0,0.5],[1,0.5]];portConstraint=eastwest;" vertex="1" parent="7hg7fwCNh3IDwbxx84Ut-30">
          <mxGeometry y="128" width="301" height="32" as="geometry" />
        </mxCell>
        <mxCell id="7hg7fwCNh3IDwbxx84Ut-35" value="+timestamp data_criacao" style="text;strokeColor=none;fillColor=none;align=left;verticalAlign=top;spacingLeft=4;spacingRight=4;overflow=hidden;rotatable=0;points=[[0,0.5],[1,0.5]];portConstraint=eastwest;" vertex="1" parent="7hg7fwCNh3IDwbxx84Ut-30">
          <mxGeometry y="160" width="301" height="32" as="geometry" />
        </mxCell>
        <mxCell id="7hg7fwCNh3IDwbxx84Ut-36" style="line;strokeWidth=1;fillColor=none;align=left;verticalAlign=middle;spacingTop=-1;spacingLeft=3;spacingRight=3;rotatable=0;labelPosition=right;points=[];portConstraint=eastwest;strokeColor=inherit;" vertex="1" parent="7hg7fwCNh3IDwbxx84Ut-30">
          <mxGeometry y="192" width="301" height="16" as="geometry" />
        </mxCell>
        <mxCell id="7hg7fwCNh3IDwbxx84Ut-37" value="Nota" style="swimlane;fontStyle=1;align=center;verticalAlign=top;childLayout=stackLayout;horizontal=1;startSize=28.52173913043478;horizontalStack=0;resizeParent=1;resizeParentMax=0;resizeLast=0;collapsible=0;marginBottom=0;" vertex="1" parent="1">
          <mxGeometry x="4092" y="11339" width="253" height="332.52173913043475" as="geometry" />
        </mxCell>
        <mxCell id="7hg7fwCNh3IDwbxx84Ut-38" value="+int id" style="text;strokeColor=none;fillColor=none;align=left;verticalAlign=top;spacingLeft=4;spacingRight=4;overflow=hidden;rotatable=0;points=[[0,0.5],[1,0.5]];portConstraint=eastwest;" vertex="1" parent="7hg7fwCNh3IDwbxx84Ut-37">
          <mxGeometry y="28.52173913043478" width="253" height="29" as="geometry" />
        </mxCell>
        <mxCell id="7hg7fwCNh3IDwbxx84Ut-39" value="+string titulo" style="text;strokeColor=none;fillColor=none;align=left;verticalAlign=top;spacingLeft=4;spacingRight=4;overflow=hidden;rotatable=0;points=[[0,0.5],[1,0.5]];portConstraint=eastwest;" vertex="1" parent="7hg7fwCNh3IDwbxx84Ut-37">
          <mxGeometry y="57.52173913043478" width="253" height="29" as="geometry" />
        </mxCell>
        <mxCell id="7hg7fwCNh3IDwbxx84Ut-40" value="+string descricao" style="text;strokeColor=none;fillColor=none;align=left;verticalAlign=top;spacingLeft=4;spacingRight=4;overflow=hidden;rotatable=0;points=[[0,0.5],[1,0.5]];portConstraint=eastwest;" vertex="1" parent="7hg7fwCNh3IDwbxx84Ut-37">
          <mxGeometry y="86.52173913043478" width="253" height="29" as="geometry" />
        </mxCell>
        <mxCell id="7hg7fwCNh3IDwbxx84Ut-41" value="+string tipo" style="text;strokeColor=none;fillColor=none;align=left;verticalAlign=top;spacingLeft=4;spacingRight=4;overflow=hidden;rotatable=0;points=[[0,0.5],[1,0.5]];portConstraint=eastwest;" vertex="1" parent="7hg7fwCNh3IDwbxx84Ut-37">
          <mxGeometry y="115.52173913043478" width="253" height="29" as="geometry" />
        </mxCell>
        <mxCell id="7hg7fwCNh3IDwbxx84Ut-42" value="+string status" style="text;strokeColor=none;fillColor=none;align=left;verticalAlign=top;spacingLeft=4;spacingRight=4;overflow=hidden;rotatable=0;points=[[0,0.5],[1,0.5]];portConstraint=eastwest;" vertex="1" parent="7hg7fwCNh3IDwbxx84Ut-37">
          <mxGeometry y="144.52173913043478" width="253" height="29" as="geometry" />
        </mxCell>
        <mxCell id="7hg7fwCNh3IDwbxx84Ut-43" value="+date data_inicio" style="text;strokeColor=none;fillColor=none;align=left;verticalAlign=top;spacingLeft=4;spacingRight=4;overflow=hidden;rotatable=0;points=[[0,0.5],[1,0.5]];portConstraint=eastwest;" vertex="1" parent="7hg7fwCNh3IDwbxx84Ut-37">
          <mxGeometry y="173.52173913043478" width="253" height="29" as="geometry" />
        </mxCell>
        <mxCell id="7hg7fwCNh3IDwbxx84Ut-44" value="+date data_fim" style="text;strokeColor=none;fillColor=none;align=left;verticalAlign=top;spacingLeft=4;spacingRight=4;overflow=hidden;rotatable=0;points=[[0,0.5],[1,0.5]];portConstraint=eastwest;" vertex="1" parent="7hg7fwCNh3IDwbxx84Ut-37">
          <mxGeometry y="202.52173913043478" width="253" height="29" as="geometry" />
        </mxCell>
        <mxCell id="7hg7fwCNh3IDwbxx84Ut-45" value="+timestamp data_criacao" style="text;strokeColor=none;fillColor=none;align=left;verticalAlign=top;spacingLeft=4;spacingRight=4;overflow=hidden;rotatable=0;points=[[0,0.5],[1,0.5]];portConstraint=eastwest;" vertex="1" parent="7hg7fwCNh3IDwbxx84Ut-37">
          <mxGeometry y="231.52173913043478" width="253" height="29" as="geometry" />
        </mxCell>
        <mxCell id="7hg7fwCNh3IDwbxx84Ut-46" value="+timestamp data_atualizacao" style="text;strokeColor=none;fillColor=none;align=left;verticalAlign=top;spacingLeft=4;spacingRight=4;overflow=hidden;rotatable=0;points=[[0,0.5],[1,0.5]];portConstraint=eastwest;" vertex="1" parent="7hg7fwCNh3IDwbxx84Ut-37">
          <mxGeometry y="260.52173913043475" width="253" height="29" as="geometry" />
        </mxCell>
        <mxCell id="7hg7fwCNh3IDwbxx84Ut-47" value="+int usuario_id" style="text;strokeColor=none;fillColor=none;align=left;verticalAlign=top;spacingLeft=4;spacingRight=4;overflow=hidden;rotatable=0;points=[[0,0.5],[1,0.5]];portConstraint=eastwest;" vertex="1" parent="7hg7fwCNh3IDwbxx84Ut-37">
          <mxGeometry y="289.52173913043475" width="253" height="29" as="geometry" />
        </mxCell>
        <mxCell id="7hg7fwCNh3IDwbxx84Ut-48" style="line;strokeWidth=1;fillColor=none;align=left;verticalAlign=middle;spacingTop=-1;spacingLeft=3;spacingRight=3;rotatable=0;labelPosition=right;points=[];portConstraint=eastwest;strokeColor=inherit;" vertex="1" parent="7hg7fwCNh3IDwbxx84Ut-37">
          <mxGeometry y="318.52173913043475" width="253" height="14" as="geometry" />
        </mxCell>
        <mxCell id="7hg7fwCNh3IDwbxx84Ut-49" value="Vinculo" style="swimlane;fontStyle=1;align=center;verticalAlign=top;childLayout=stackLayout;horizontal=1;startSize=32;horizontalStack=0;resizeParent=1;resizeParentMax=0;resizeLast=0;collapsible=0;marginBottom=0;" vertex="1" parent="1">
          <mxGeometry x="4377" y="11784" width="234" height="208" as="geometry" />
        </mxCell>
        <mxCell id="7hg7fwCNh3IDwbxx84Ut-50" value="+int id" style="text;strokeColor=none;fillColor=none;align=left;verticalAlign=top;spacingLeft=4;spacingRight=4;overflow=hidden;rotatable=0;points=[[0,0.5],[1,0.5]];portConstraint=eastwest;" vertex="1" parent="7hg7fwCNh3IDwbxx84Ut-49">
          <mxGeometry y="32" width="234" height="32" as="geometry" />
        </mxCell>
        <mxCell id="7hg7fwCNh3IDwbxx84Ut-51" value="+int nota_origem_id" style="text;strokeColor=none;fillColor=none;align=left;verticalAlign=top;spacingLeft=4;spacingRight=4;overflow=hidden;rotatable=0;points=[[0,0.5],[1,0.5]];portConstraint=eastwest;" vertex="1" parent="7hg7fwCNh3IDwbxx84Ut-49">
          <mxGeometry y="64" width="234" height="32" as="geometry" />
        </mxCell>
        <mxCell id="7hg7fwCNh3IDwbxx84Ut-52" value="+int nota_destino_id" style="text;strokeColor=none;fillColor=none;align=left;verticalAlign=top;spacingLeft=4;spacingRight=4;overflow=hidden;rotatable=0;points=[[0,0.5],[1,0.5]];portConstraint=eastwest;" vertex="1" parent="7hg7fwCNh3IDwbxx84Ut-49">
          <mxGeometry y="96" width="234" height="32" as="geometry" />
        </mxCell>
        <mxCell id="7hg7fwCNh3IDwbxx84Ut-53" value="+string tipo_relacao" style="text;strokeColor=none;fillColor=none;align=left;verticalAlign=top;spacingLeft=4;spacingRight=4;overflow=hidden;rotatable=0;points=[[0,0.5],[1,0.5]];portConstraint=eastwest;" vertex="1" parent="7hg7fwCNh3IDwbxx84Ut-49">
          <mxGeometry y="128" width="234" height="32" as="geometry" />
        </mxCell>
        <mxCell id="7hg7fwCNh3IDwbxx84Ut-54" value="+timestamp data_criacao" style="text;strokeColor=none;fillColor=none;align=left;verticalAlign=top;spacingLeft=4;spacingRight=4;overflow=hidden;rotatable=0;points=[[0,0.5],[1,0.5]];portConstraint=eastwest;" vertex="1" parent="7hg7fwCNh3IDwbxx84Ut-49">
          <mxGeometry y="160" width="234" height="32" as="geometry" />
        </mxCell>
        <mxCell id="7hg7fwCNh3IDwbxx84Ut-55" style="line;strokeWidth=1;fillColor=none;align=left;verticalAlign=middle;spacingTop=-1;spacingLeft=3;spacingRight=3;rotatable=0;labelPosition=right;points=[];portConstraint=eastwest;strokeColor=inherit;" vertex="1" parent="7hg7fwCNh3IDwbxx84Ut-49">
          <mxGeometry y="192" width="234" height="16" as="geometry" />
        </mxCell>
        <mxCell id="7hg7fwCNh3IDwbxx84Ut-56" value="Arquivo" style="swimlane;fontStyle=1;align=center;verticalAlign=top;childLayout=stackLayout;horizontal=1;startSize=30.933333333333334;horizontalStack=0;resizeParent=1;resizeParentMax=0;resizeLast=0;collapsible=0;marginBottom=0;" vertex="1" parent="1">
          <mxGeometry x="4898" y="11772" width="231" height="231.93333333333334" as="geometry" />
        </mxCell>
        <mxCell id="7hg7fwCNh3IDwbxx84Ut-57" value="+int id" style="text;strokeColor=none;fillColor=none;align=left;verticalAlign=top;spacingLeft=4;spacingRight=4;overflow=hidden;rotatable=0;points=[[0,0.5],[1,0.5]];portConstraint=eastwest;" vertex="1" parent="7hg7fwCNh3IDwbxx84Ut-56">
          <mxGeometry y="30.933333333333334" width="231" height="31" as="geometry" />
        </mxCell>
        <mxCell id="7hg7fwCNh3IDwbxx84Ut-58" value="+int nota_id" style="text;strokeColor=none;fillColor=none;align=left;verticalAlign=top;spacingLeft=4;spacingRight=4;overflow=hidden;rotatable=0;points=[[0,0.5],[1,0.5]];portConstraint=eastwest;" vertex="1" parent="7hg7fwCNh3IDwbxx84Ut-56">
          <mxGeometry y="61.93333333333334" width="231" height="31" as="geometry" />
        </mxCell>
        <mxCell id="7hg7fwCNh3IDwbxx84Ut-59" value="+string nome" style="text;strokeColor=none;fillColor=none;align=left;verticalAlign=top;spacingLeft=4;spacingRight=4;overflow=hidden;rotatable=0;points=[[0,0.5],[1,0.5]];portConstraint=eastwest;" vertex="1" parent="7hg7fwCNh3IDwbxx84Ut-56">
          <mxGeometry y="92.93333333333334" width="231" height="31" as="geometry" />
        </mxCell>
        <mxCell id="7hg7fwCNh3IDwbxx84Ut-60" value="+string caminho" style="text;strokeColor=none;fillColor=none;align=left;verticalAlign=top;spacingLeft=4;spacingRight=4;overflow=hidden;rotatable=0;points=[[0,0.5],[1,0.5]];portConstraint=eastwest;" vertex="1" parent="7hg7fwCNh3IDwbxx84Ut-56">
          <mxGeometry y="123.93333333333334" width="231" height="31" as="geometry" />
        </mxCell>
        <mxCell id="7hg7fwCNh3IDwbxx84Ut-61" value="+string tipo" style="text;strokeColor=none;fillColor=none;align=left;verticalAlign=top;spacingLeft=4;spacingRight=4;overflow=hidden;rotatable=0;points=[[0,0.5],[1,0.5]];portConstraint=eastwest;" vertex="1" parent="7hg7fwCNh3IDwbxx84Ut-56">
          <mxGeometry y="154.93333333333334" width="231" height="31" as="geometry" />
        </mxCell>
        <mxCell id="7hg7fwCNh3IDwbxx84Ut-62" value="+timestamp data_upload" style="text;strokeColor=none;fillColor=none;align=left;verticalAlign=top;spacingLeft=4;spacingRight=4;overflow=hidden;rotatable=0;points=[[0,0.5],[1,0.5]];portConstraint=eastwest;" vertex="1" parent="7hg7fwCNh3IDwbxx84Ut-56">
          <mxGeometry y="185.93333333333334" width="231" height="31" as="geometry" />
        </mxCell>
        <mxCell id="7hg7fwCNh3IDwbxx84Ut-63" style="line;strokeWidth=1;fillColor=none;align=left;verticalAlign=middle;spacingTop=-1;spacingLeft=3;spacingRight=3;rotatable=0;labelPosition=right;points=[];portConstraint=eastwest;strokeColor=inherit;" vertex="1" parent="7hg7fwCNh3IDwbxx84Ut-56">
          <mxGeometry y="216.93333333333334" width="231" height="15" as="geometry" />
        </mxCell>
        <mxCell id="7hg7fwCNh3IDwbxx84Ut-64" value="Estilo" style="swimlane;fontStyle=1;align=center;verticalAlign=top;childLayout=stackLayout;horizontal=1;startSize=32;horizontalStack=0;resizeParent=1;resizeParentMax=0;resizeLast=0;collapsible=0;marginBottom=0;" vertex="1" parent="1">
          <mxGeometry x="5218" y="11784" width="170" height="208" as="geometry" />
        </mxCell>
        <mxCell id="7hg7fwCNh3IDwbxx84Ut-65" value="+int id" style="text;strokeColor=none;fillColor=none;align=left;verticalAlign=top;spacingLeft=4;spacingRight=4;overflow=hidden;rotatable=0;points=[[0,0.5],[1,0.5]];portConstraint=eastwest;" vertex="1" parent="7hg7fwCNh3IDwbxx84Ut-64">
          <mxGeometry y="32" width="170" height="32" as="geometry" />
        </mxCell>
        <mxCell id="7hg7fwCNh3IDwbxx84Ut-66" value="+int nota_id" style="text;strokeColor=none;fillColor=none;align=left;verticalAlign=top;spacingLeft=4;spacingRight=4;overflow=hidden;rotatable=0;points=[[0,0.5],[1,0.5]];portConstraint=eastwest;" vertex="1" parent="7hg7fwCNh3IDwbxx84Ut-64">
          <mxGeometry y="64" width="170" height="32" as="geometry" />
        </mxCell>
        <mxCell id="7hg7fwCNh3IDwbxx84Ut-67" value="+string cor_fundo" style="text;strokeColor=none;fillColor=none;align=left;verticalAlign=top;spacingLeft=4;spacingRight=4;overflow=hidden;rotatable=0;points=[[0,0.5],[1,0.5]];portConstraint=eastwest;" vertex="1" parent="7hg7fwCNh3IDwbxx84Ut-64">
          <mxGeometry y="96" width="170" height="32" as="geometry" />
        </mxCell>
        <mxCell id="7hg7fwCNh3IDwbxx84Ut-68" value="+string cor_texto" style="text;strokeColor=none;fillColor=none;align=left;verticalAlign=top;spacingLeft=4;spacingRight=4;overflow=hidden;rotatable=0;points=[[0,0.5],[1,0.5]];portConstraint=eastwest;" vertex="1" parent="7hg7fwCNh3IDwbxx84Ut-64">
          <mxGeometry y="128" width="170" height="32" as="geometry" />
        </mxCell>
        <mxCell id="7hg7fwCNh3IDwbxx84Ut-69" value="+string fonte" style="text;strokeColor=none;fillColor=none;align=left;verticalAlign=top;spacingLeft=4;spacingRight=4;overflow=hidden;rotatable=0;points=[[0,0.5],[1,0.5]];portConstraint=eastwest;" vertex="1" parent="7hg7fwCNh3IDwbxx84Ut-64">
          <mxGeometry y="160" width="170" height="32" as="geometry" />
        </mxCell>
        <mxCell id="7hg7fwCNh3IDwbxx84Ut-70" style="line;strokeWidth=1;fillColor=none;align=left;verticalAlign=middle;spacingTop=-1;spacingLeft=3;spacingRight=3;rotatable=0;labelPosition=right;points=[];portConstraint=eastwest;strokeColor=inherit;" vertex="1" parent="7hg7fwCNh3IDwbxx84Ut-64">
          <mxGeometry y="192" width="170" height="16" as="geometry" />
        </mxCell>
        <mxCell id="7hg7fwCNh3IDwbxx84Ut-71" value="LogNota" style="swimlane;fontStyle=1;align=center;verticalAlign=top;childLayout=stackLayout;horizontal=1;startSize=29.473684210526315;horizontalStack=0;resizeParent=1;resizeParentMax=0;resizeLast=0;collapsible=0;marginBottom=0;" vertex="1" parent="1">
          <mxGeometry x="3780" y="10738" width="271" height="276.4736842105263" as="geometry" />
        </mxCell>
        <mxCell id="7hg7fwCNh3IDwbxx84Ut-72" value="+int id" style="text;strokeColor=none;fillColor=none;align=left;verticalAlign=top;spacingLeft=4;spacingRight=4;overflow=hidden;rotatable=0;points=[[0,0.5],[1,0.5]];portConstraint=eastwest;" vertex="1" parent="7hg7fwCNh3IDwbxx84Ut-71">
          <mxGeometry y="29.473684210526315" width="271" height="29" as="geometry" />
        </mxCell>
        <mxCell id="7hg7fwCNh3IDwbxx84Ut-73" value="+int nota_id" style="text;strokeColor=none;fillColor=none;align=left;verticalAlign=top;spacingLeft=4;spacingRight=4;overflow=hidden;rotatable=0;points=[[0,0.5],[1,0.5]];portConstraint=eastwest;" vertex="1" parent="7hg7fwCNh3IDwbxx84Ut-71">
          <mxGeometry y="58.473684210526315" width="271" height="29" as="geometry" />
        </mxCell>
        <mxCell id="7hg7fwCNh3IDwbxx84Ut-74" value="+int usuario_id" style="text;strokeColor=none;fillColor=none;align=left;verticalAlign=top;spacingLeft=4;spacingRight=4;overflow=hidden;rotatable=0;points=[[0,0.5],[1,0.5]];portConstraint=eastwest;" vertex="1" parent="7hg7fwCNh3IDwbxx84Ut-71">
          <mxGeometry y="87.47368421052632" width="271" height="29" as="geometry" />
        </mxCell>
        <mxCell id="7hg7fwCNh3IDwbxx84Ut-75" value="+string titulo_anterior" style="text;strokeColor=none;fillColor=none;align=left;verticalAlign=top;spacingLeft=4;spacingRight=4;overflow=hidden;rotatable=0;points=[[0,0.5],[1,0.5]];portConstraint=eastwest;" vertex="1" parent="7hg7fwCNh3IDwbxx84Ut-71">
          <mxGeometry y="116.47368421052632" width="271" height="29" as="geometry" />
        </mxCell>
        <mxCell id="7hg7fwCNh3IDwbxx84Ut-76" value="+string descricao_anterior" style="text;strokeColor=none;fillColor=none;align=left;verticalAlign=top;spacingLeft=4;spacingRight=4;overflow=hidden;rotatable=0;points=[[0,0.5],[1,0.5]];portConstraint=eastwest;" vertex="1" parent="7hg7fwCNh3IDwbxx84Ut-71">
          <mxGeometry y="145.4736842105263" width="271" height="29" as="geometry" />
        </mxCell>
        <mxCell id="7hg7fwCNh3IDwbxx84Ut-77" value="+string status_anterior" style="text;strokeColor=none;fillColor=none;align=left;verticalAlign=top;spacingLeft=4;spacingRight=4;overflow=hidden;rotatable=0;points=[[0,0.5],[1,0.5]];portConstraint=eastwest;" vertex="1" parent="7hg7fwCNh3IDwbxx84Ut-71">
          <mxGeometry y="174.4736842105263" width="271" height="29" as="geometry" />
        </mxCell>
        <mxCell id="7hg7fwCNh3IDwbxx84Ut-78" value="+string operacao" style="text;strokeColor=none;fillColor=none;align=left;verticalAlign=top;spacingLeft=4;spacingRight=4;overflow=hidden;rotatable=0;points=[[0,0.5],[1,0.5]];portConstraint=eastwest;" vertex="1" parent="7hg7fwCNh3IDwbxx84Ut-71">
          <mxGeometry y="203.4736842105263" width="271" height="29" as="geometry" />
        </mxCell>
        <mxCell id="7hg7fwCNh3IDwbxx84Ut-79" value="+timestamp data_modificacao" style="text;strokeColor=none;fillColor=none;align=left;verticalAlign=top;spacingLeft=4;spacingRight=4;overflow=hidden;rotatable=0;points=[[0,0.5],[1,0.5]];portConstraint=eastwest;" vertex="1" parent="7hg7fwCNh3IDwbxx84Ut-71">
          <mxGeometry y="232.4736842105263" width="271" height="29" as="geometry" />
        </mxCell>
        <mxCell id="7hg7fwCNh3IDwbxx84Ut-80" style="line;strokeWidth=1;fillColor=none;align=left;verticalAlign=middle;spacingTop=-1;spacingLeft=3;spacingRight=3;rotatable=0;labelPosition=right;points=[];portConstraint=eastwest;strokeColor=inherit;" vertex="1" parent="7hg7fwCNh3IDwbxx84Ut-71">
          <mxGeometry y="261.4736842105263" width="271" height="15" as="geometry" />
        </mxCell>
        <mxCell id="7hg7fwCNh3IDwbxx84Ut-81" value="LogTarefa" style="swimlane;fontStyle=1;align=center;verticalAlign=top;childLayout=stackLayout;horizontal=1;startSize=30.11764705882353;horizontalStack=0;resizeParent=1;resizeParentMax=0;resizeLast=0;collapsible=0;marginBottom=0;" vertex="1" parent="1">
          <mxGeometry x="4101" y="10750" width="278" height="255.11764705882354" as="geometry" />
        </mxCell>
        <mxCell id="7hg7fwCNh3IDwbxx84Ut-82" value="+int id" style="text;strokeColor=none;fillColor=none;align=left;verticalAlign=top;spacingLeft=4;spacingRight=4;overflow=hidden;rotatable=0;points=[[0,0.5],[1,0.5]];portConstraint=eastwest;" vertex="1" parent="7hg7fwCNh3IDwbxx84Ut-81">
          <mxGeometry y="30.11764705882353" width="278" height="30" as="geometry" />
        </mxCell>
        <mxCell id="7hg7fwCNh3IDwbxx84Ut-83" value="+int tarefa_id" style="text;strokeColor=none;fillColor=none;align=left;verticalAlign=top;spacingLeft=4;spacingRight=4;overflow=hidden;rotatable=0;points=[[0,0.5],[1,0.5]];portConstraint=eastwest;" vertex="1" parent="7hg7fwCNh3IDwbxx84Ut-81">
          <mxGeometry y="60.11764705882353" width="278" height="30" as="geometry" />
        </mxCell>
        <mxCell id="7hg7fwCNh3IDwbxx84Ut-84" value="+int usuario_id" style="text;strokeColor=none;fillColor=none;align=left;verticalAlign=top;spacingLeft=4;spacingRight=4;overflow=hidden;rotatable=0;points=[[0,0.5],[1,0.5]];portConstraint=eastwest;" vertex="1" parent="7hg7fwCNh3IDwbxx84Ut-81">
          <mxGeometry y="90.11764705882354" width="278" height="30" as="geometry" />
        </mxCell>
        <mxCell id="7hg7fwCNh3IDwbxx84Ut-85" value="+string status_anterior" style="text;strokeColor=none;fillColor=none;align=left;verticalAlign=top;spacingLeft=4;spacingRight=4;overflow=hidden;rotatable=0;points=[[0,0.5],[1,0.5]];portConstraint=eastwest;" vertex="1" parent="7hg7fwCNh3IDwbxx84Ut-81">
          <mxGeometry y="120.11764705882354" width="278" height="30" as="geometry" />
        </mxCell>
        <mxCell id="7hg7fwCNh3IDwbxx84Ut-86" value="+date prazo_anterior" style="text;strokeColor=none;fillColor=none;align=left;verticalAlign=top;spacingLeft=4;spacingRight=4;overflow=hidden;rotatable=0;points=[[0,0.5],[1,0.5]];portConstraint=eastwest;" vertex="1" parent="7hg7fwCNh3IDwbxx84Ut-81">
          <mxGeometry y="150.11764705882354" width="278" height="30" as="geometry" />
        </mxCell>
        <mxCell id="7hg7fwCNh3IDwbxx84Ut-87" value="+string operacao" style="text;strokeColor=none;fillColor=none;align=left;verticalAlign=top;spacingLeft=4;spacingRight=4;overflow=hidden;rotatable=0;points=[[0,0.5],[1,0.5]];portConstraint=eastwest;" vertex="1" parent="7hg7fwCNh3IDwbxx84Ut-81">
          <mxGeometry y="180.11764705882354" width="278" height="30" as="geometry" />
        </mxCell>
        <mxCell id="7hg7fwCNh3IDwbxx84Ut-88" value="+timestamp data_modificacao" style="text;strokeColor=none;fillColor=none;align=left;verticalAlign=top;spacingLeft=4;spacingRight=4;overflow=hidden;rotatable=0;points=[[0,0.5],[1,0.5]];portConstraint=eastwest;" vertex="1" parent="7hg7fwCNh3IDwbxx84Ut-81">
          <mxGeometry y="210.11764705882354" width="278" height="30" as="geometry" />
        </mxCell>
        <mxCell id="7hg7fwCNh3IDwbxx84Ut-89" style="line;strokeWidth=1;fillColor=none;align=left;verticalAlign=middle;spacingTop=-1;spacingLeft=3;spacingRight=3;rotatable=0;labelPosition=right;points=[];portConstraint=eastwest;strokeColor=inherit;" vertex="1" parent="7hg7fwCNh3IDwbxx84Ut-81">
          <mxGeometry y="240.11764705882354" width="278" height="15" as="geometry" />
        </mxCell>
        <mxCell id="7hg7fwCNh3IDwbxx84Ut-90" value="LogVinculo" style="swimlane;fontStyle=1;align=center;verticalAlign=top;childLayout=stackLayout;horizontal=1;startSize=30.933333333333334;horizontalStack=0;resizeParent=1;resizeParentMax=0;resizeLast=0;collapsible=0;marginBottom=0;" vertex="1" parent="1">
          <mxGeometry x="4717" y="11387" width="282" height="231.93333333333334" as="geometry" />
        </mxCell>
        <mxCell id="7hg7fwCNh3IDwbxx84Ut-91" value="+int id" style="text;strokeColor=none;fillColor=none;align=left;verticalAlign=top;spacingLeft=4;spacingRight=4;overflow=hidden;rotatable=0;points=[[0,0.5],[1,0.5]];portConstraint=eastwest;" vertex="1" parent="7hg7fwCNh3IDwbxx84Ut-90">
          <mxGeometry y="30.933333333333334" width="282" height="31" as="geometry" />
        </mxCell>
        <mxCell id="7hg7fwCNh3IDwbxx84Ut-92" value="+int vinculo_id" style="text;strokeColor=none;fillColor=none;align=left;verticalAlign=top;spacingLeft=4;spacingRight=4;overflow=hidden;rotatable=0;points=[[0,0.5],[1,0.5]];portConstraint=eastwest;" vertex="1" parent="7hg7fwCNh3IDwbxx84Ut-90">
          <mxGeometry y="61.93333333333334" width="282" height="31" as="geometry" />
        </mxCell>
        <mxCell id="7hg7fwCNh3IDwbxx84Ut-93" value="+int usuario_id" style="text;strokeColor=none;fillColor=none;align=left;verticalAlign=top;spacingLeft=4;spacingRight=4;overflow=hidden;rotatable=0;points=[[0,0.5],[1,0.5]];portConstraint=eastwest;" vertex="1" parent="7hg7fwCNh3IDwbxx84Ut-90">
          <mxGeometry y="92.93333333333334" width="282" height="31" as="geometry" />
        </mxCell>
        <mxCell id="7hg7fwCNh3IDwbxx84Ut-94" value="+string tipo_relacao_anterior" style="text;strokeColor=none;fillColor=none;align=left;verticalAlign=top;spacingLeft=4;spacingRight=4;overflow=hidden;rotatable=0;points=[[0,0.5],[1,0.5]];portConstraint=eastwest;" vertex="1" parent="7hg7fwCNh3IDwbxx84Ut-90">
          <mxGeometry y="123.93333333333334" width="282" height="31" as="geometry" />
        </mxCell>
        <mxCell id="7hg7fwCNh3IDwbxx84Ut-95" value="+string operacao" style="text;strokeColor=none;fillColor=none;align=left;verticalAlign=top;spacingLeft=4;spacingRight=4;overflow=hidden;rotatable=0;points=[[0,0.5],[1,0.5]];portConstraint=eastwest;" vertex="1" parent="7hg7fwCNh3IDwbxx84Ut-90">
          <mxGeometry y="154.93333333333334" width="282" height="31" as="geometry" />
        </mxCell>
        <mxCell id="7hg7fwCNh3IDwbxx84Ut-96" value="+timestamp data_modificacao" style="text;strokeColor=none;fillColor=none;align=left;verticalAlign=top;spacingLeft=4;spacingRight=4;overflow=hidden;rotatable=0;points=[[0,0.5],[1,0.5]];portConstraint=eastwest;" vertex="1" parent="7hg7fwCNh3IDwbxx84Ut-90">
          <mxGeometry y="185.93333333333334" width="282" height="31" as="geometry" />
        </mxCell>
        <mxCell id="7hg7fwCNh3IDwbxx84Ut-97" style="line;strokeWidth=1;fillColor=none;align=left;verticalAlign=middle;spacingTop=-1;spacingLeft=3;spacingRight=3;rotatable=0;labelPosition=right;points=[];portConstraint=eastwest;strokeColor=inherit;" vertex="1" parent="7hg7fwCNh3IDwbxx84Ut-90">
          <mxGeometry y="216.93333333333334" width="282" height="15" as="geometry" />
        </mxCell>
        <mxCell id="7hg7fwCNh3IDwbxx84Ut-98" value="LogArquivo" style="swimlane;fontStyle=1;align=center;verticalAlign=top;childLayout=stackLayout;horizontal=1;startSize=29.473684210526315;horizontalStack=0;resizeParent=1;resizeParentMax=0;resizeLast=0;collapsible=0;marginBottom=0;" vertex="1" parent="1">
          <mxGeometry x="5049" y="11363" width="283" height="276.4736842105263" as="geometry" />
        </mxCell>
        <mxCell id="7hg7fwCNh3IDwbxx84Ut-99" value="+int id" style="text;strokeColor=none;fillColor=none;align=left;verticalAlign=top;spacingLeft=4;spacingRight=4;overflow=hidden;rotatable=0;points=[[0,0.5],[1,0.5]];portConstraint=eastwest;" vertex="1" parent="7hg7fwCNh3IDwbxx84Ut-98">
          <mxGeometry y="29.473684210526315" width="283" height="29" as="geometry" />
        </mxCell>
        <mxCell id="7hg7fwCNh3IDwbxx84Ut-100" value="+int arquivo_id" style="text;strokeColor=none;fillColor=none;align=left;verticalAlign=top;spacingLeft=4;spacingRight=4;overflow=hidden;rotatable=0;points=[[0,0.5],[1,0.5]];portConstraint=eastwest;" vertex="1" parent="7hg7fwCNh3IDwbxx84Ut-98">
          <mxGeometry y="58.473684210526315" width="283" height="29" as="geometry" />
        </mxCell>
        <mxCell id="7hg7fwCNh3IDwbxx84Ut-101" value="+int usuario_id" style="text;strokeColor=none;fillColor=none;align=left;verticalAlign=top;spacingLeft=4;spacingRight=4;overflow=hidden;rotatable=0;points=[[0,0.5],[1,0.5]];portConstraint=eastwest;" vertex="1" parent="7hg7fwCNh3IDwbxx84Ut-98">
          <mxGeometry y="87.47368421052632" width="283" height="29" as="geometry" />
        </mxCell>
        <mxCell id="7hg7fwCNh3IDwbxx84Ut-102" value="+string nome_anterior" style="text;strokeColor=none;fillColor=none;align=left;verticalAlign=top;spacingLeft=4;spacingRight=4;overflow=hidden;rotatable=0;points=[[0,0.5],[1,0.5]];portConstraint=eastwest;" vertex="1" parent="7hg7fwCNh3IDwbxx84Ut-98">
          <mxGeometry y="116.47368421052632" width="283" height="29" as="geometry" />
        </mxCell>
        <mxCell id="7hg7fwCNh3IDwbxx84Ut-103" value="+string caminho_anterior" style="text;strokeColor=none;fillColor=none;align=left;verticalAlign=top;spacingLeft=4;spacingRight=4;overflow=hidden;rotatable=0;points=[[0,0.5],[1,0.5]];portConstraint=eastwest;" vertex="1" parent="7hg7fwCNh3IDwbxx84Ut-98">
          <mxGeometry y="145.4736842105263" width="283" height="29" as="geometry" />
        </mxCell>
        <mxCell id="7hg7fwCNh3IDwbxx84Ut-104" value="+string tipo_anterior" style="text;strokeColor=none;fillColor=none;align=left;verticalAlign=top;spacingLeft=4;spacingRight=4;overflow=hidden;rotatable=0;points=[[0,0.5],[1,0.5]];portConstraint=eastwest;" vertex="1" parent="7hg7fwCNh3IDwbxx84Ut-98">
          <mxGeometry y="174.4736842105263" width="283" height="29" as="geometry" />
        </mxCell>
        <mxCell id="7hg7fwCNh3IDwbxx84Ut-105" value="+string operacao" style="text;strokeColor=none;fillColor=none;align=left;verticalAlign=top;spacingLeft=4;spacingRight=4;overflow=hidden;rotatable=0;points=[[0,0.5],[1,0.5]];portConstraint=eastwest;" vertex="1" parent="7hg7fwCNh3IDwbxx84Ut-98">
          <mxGeometry y="203.4736842105263" width="283" height="29" as="geometry" />
        </mxCell>
        <mxCell id="7hg7fwCNh3IDwbxx84Ut-106" value="+timestamp data_modificacao" style="text;strokeColor=none;fillColor=none;align=left;verticalAlign=top;spacingLeft=4;spacingRight=4;overflow=hidden;rotatable=0;points=[[0,0.5],[1,0.5]];portConstraint=eastwest;" vertex="1" parent="7hg7fwCNh3IDwbxx84Ut-98">
          <mxGeometry y="232.4736842105263" width="283" height="29" as="geometry" />
        </mxCell>
        <mxCell id="7hg7fwCNh3IDwbxx84Ut-107" style="line;strokeWidth=1;fillColor=none;align=left;verticalAlign=middle;spacingTop=-1;spacingLeft=3;spacingRight=3;rotatable=0;labelPosition=right;points=[];portConstraint=eastwest;strokeColor=inherit;" vertex="1" parent="7hg7fwCNh3IDwbxx84Ut-98">
          <mxGeometry y="261.4736842105263" width="283" height="15" as="geometry" />
        </mxCell>
        <mxCell id="7hg7fwCNh3IDwbxx84Ut-108" value="LogEstilo" style="swimlane;fontStyle=1;align=center;verticalAlign=top;childLayout=stackLayout;horizontal=1;startSize=29.473684210526315;horizontalStack=0;resizeParent=1;resizeParentMax=0;resizeLast=0;collapsible=0;marginBottom=0;" vertex="1" parent="1">
          <mxGeometry x="5382" y="11363" width="274" height="276.4736842105263" as="geometry" />
        </mxCell>
        <mxCell id="7hg7fwCNh3IDwbxx84Ut-109" value="+int id" style="text;strokeColor=none;fillColor=none;align=left;verticalAlign=top;spacingLeft=4;spacingRight=4;overflow=hidden;rotatable=0;points=[[0,0.5],[1,0.5]];portConstraint=eastwest;" vertex="1" parent="7hg7fwCNh3IDwbxx84Ut-108">
          <mxGeometry y="29.473684210526315" width="274" height="29" as="geometry" />
        </mxCell>
        <mxCell id="7hg7fwCNh3IDwbxx84Ut-110" value="+int estilo_id" style="text;strokeColor=none;fillColor=none;align=left;verticalAlign=top;spacingLeft=4;spacingRight=4;overflow=hidden;rotatable=0;points=[[0,0.5],[1,0.5]];portConstraint=eastwest;" vertex="1" parent="7hg7fwCNh3IDwbxx84Ut-108">
          <mxGeometry y="58.473684210526315" width="274" height="29" as="geometry" />
        </mxCell>
        <mxCell id="7hg7fwCNh3IDwbxx84Ut-111" value="+int usuario_id" style="text;strokeColor=none;fillColor=none;align=left;verticalAlign=top;spacingLeft=4;spacingRight=4;overflow=hidden;rotatable=0;points=[[0,0.5],[1,0.5]];portConstraint=eastwest;" vertex="1" parent="7hg7fwCNh3IDwbxx84Ut-108">
          <mxGeometry y="87.47368421052632" width="274" height="29" as="geometry" />
        </mxCell>
        <mxCell id="7hg7fwCNh3IDwbxx84Ut-112" value="+string cor_fundo_anterior" style="text;strokeColor=none;fillColor=none;align=left;verticalAlign=top;spacingLeft=4;spacingRight=4;overflow=hidden;rotatable=0;points=[[0,0.5],[1,0.5]];portConstraint=eastwest;" vertex="1" parent="7hg7fwCNh3IDwbxx84Ut-108">
          <mxGeometry y="116.47368421052632" width="274" height="29" as="geometry" />
        </mxCell>
        <mxCell id="7hg7fwCNh3IDwbxx84Ut-113" value="+string cor_texto_anterior" style="text;strokeColor=none;fillColor=none;align=left;verticalAlign=top;spacingLeft=4;spacingRight=4;overflow=hidden;rotatable=0;points=[[0,0.5],[1,0.5]];portConstraint=eastwest;" vertex="1" parent="7hg7fwCNh3IDwbxx84Ut-108">
          <mxGeometry y="145.4736842105263" width="274" height="29" as="geometry" />
        </mxCell>
        <mxCell id="7hg7fwCNh3IDwbxx84Ut-114" value="+string fonte_anterior" style="text;strokeColor=none;fillColor=none;align=left;verticalAlign=top;spacingLeft=4;spacingRight=4;overflow=hidden;rotatable=0;points=[[0,0.5],[1,0.5]];portConstraint=eastwest;" vertex="1" parent="7hg7fwCNh3IDwbxx84Ut-108">
          <mxGeometry y="174.4736842105263" width="274" height="29" as="geometry" />
        </mxCell>
        <mxCell id="7hg7fwCNh3IDwbxx84Ut-115" value="+string operacao" style="text;strokeColor=none;fillColor=none;align=left;verticalAlign=top;spacingLeft=4;spacingRight=4;overflow=hidden;rotatable=0;points=[[0,0.5],[1,0.5]];portConstraint=eastwest;" vertex="1" parent="7hg7fwCNh3IDwbxx84Ut-108">
          <mxGeometry y="203.4736842105263" width="274" height="29" as="geometry" />
        </mxCell>
        <mxCell id="7hg7fwCNh3IDwbxx84Ut-116" value="+timestamp data_modificacao" style="text;strokeColor=none;fillColor=none;align=left;verticalAlign=top;spacingLeft=4;spacingRight=4;overflow=hidden;rotatable=0;points=[[0,0.5],[1,0.5]];portConstraint=eastwest;" vertex="1" parent="7hg7fwCNh3IDwbxx84Ut-108">
          <mxGeometry y="232.4736842105263" width="274" height="29" as="geometry" />
        </mxCell>
        <mxCell id="7hg7fwCNh3IDwbxx84Ut-117" style="line;strokeWidth=1;fillColor=none;align=left;verticalAlign=middle;spacingTop=-1;spacingLeft=3;spacingRight=3;rotatable=0;labelPosition=right;points=[];portConstraint=eastwest;strokeColor=inherit;" vertex="1" parent="7hg7fwCNh3IDwbxx84Ut-108">
          <mxGeometry y="261.4736842105263" width="274" height="15" as="geometry" />
        </mxCell>
        <mxCell id="7hg7fwCNh3IDwbxx84Ut-118" value="Carteira" style="swimlane;fontStyle=1;align=center;verticalAlign=top;childLayout=stackLayout;horizontal=1;startSize=30.11764705882353;horizontalStack=0;resizeParent=1;resizeParentMax=0;resizeLast=0;collapsible=0;marginBottom=0;" vertex="1" parent="1">
          <mxGeometry x="7292" y="11760" width="266" height="255.11764705882354" as="geometry" />
        </mxCell>
        <mxCell id="7hg7fwCNh3IDwbxx84Ut-119" value="+int id" style="text;strokeColor=none;fillColor=none;align=left;verticalAlign=top;spacingLeft=4;spacingRight=4;overflow=hidden;rotatable=0;points=[[0,0.5],[1,0.5]];portConstraint=eastwest;" vertex="1" parent="7hg7fwCNh3IDwbxx84Ut-118">
          <mxGeometry y="30.11764705882353" width="266" height="30" as="geometry" />
        </mxCell>
        <mxCell id="7hg7fwCNh3IDwbxx84Ut-120" value="+int usuario_id" style="text;strokeColor=none;fillColor=none;align=left;verticalAlign=top;spacingLeft=4;spacingRight=4;overflow=hidden;rotatable=0;points=[[0,0.5],[1,0.5]];portConstraint=eastwest;" vertex="1" parent="7hg7fwCNh3IDwbxx84Ut-118">
          <mxGeometry y="60.11764705882353" width="266" height="30" as="geometry" />
        </mxCell>
        <mxCell id="7hg7fwCNh3IDwbxx84Ut-121" value="+string nome" style="text;strokeColor=none;fillColor=none;align=left;verticalAlign=top;spacingLeft=4;spacingRight=4;overflow=hidden;rotatable=0;points=[[0,0.5],[1,0.5]];portConstraint=eastwest;" vertex="1" parent="7hg7fwCNh3IDwbxx84Ut-118">
          <mxGeometry y="90.11764705882354" width="266" height="30" as="geometry" />
        </mxCell>
        <mxCell id="7hg7fwCNh3IDwbxx84Ut-122" value="+string tipo" style="text;strokeColor=none;fillColor=none;align=left;verticalAlign=top;spacingLeft=4;spacingRight=4;overflow=hidden;rotatable=0;points=[[0,0.5],[1,0.5]];portConstraint=eastwest;" vertex="1" parent="7hg7fwCNh3IDwbxx84Ut-118">
          <mxGeometry y="120.11764705882354" width="266" height="30" as="geometry" />
        </mxCell>
        <mxCell id="7hg7fwCNh3IDwbxx84Ut-123" value="+decimal saldo" style="text;strokeColor=none;fillColor=none;align=left;verticalAlign=top;spacingLeft=4;spacingRight=4;overflow=hidden;rotatable=0;points=[[0,0.5],[1,0.5]];portConstraint=eastwest;" vertex="1" parent="7hg7fwCNh3IDwbxx84Ut-118">
          <mxGeometry y="150.11764705882354" width="266" height="30" as="geometry" />
        </mxCell>
        <mxCell id="7hg7fwCNh3IDwbxx84Ut-124" value="+timestamp data_criacao" style="text;strokeColor=none;fillColor=none;align=left;verticalAlign=top;spacingLeft=4;spacingRight=4;overflow=hidden;rotatable=0;points=[[0,0.5],[1,0.5]];portConstraint=eastwest;" vertex="1" parent="7hg7fwCNh3IDwbxx84Ut-118">
          <mxGeometry y="180.11764705882354" width="266" height="30" as="geometry" />
        </mxCell>
        <mxCell id="7hg7fwCNh3IDwbxx84Ut-125" value="+timestamp data_atualizacao" style="text;strokeColor=none;fillColor=none;align=left;verticalAlign=top;spacingLeft=4;spacingRight=4;overflow=hidden;rotatable=0;points=[[0,0.5],[1,0.5]];portConstraint=eastwest;" vertex="1" parent="7hg7fwCNh3IDwbxx84Ut-118">
          <mxGeometry y="210.11764705882354" width="266" height="30" as="geometry" />
        </mxCell>
        <mxCell id="7hg7fwCNh3IDwbxx84Ut-126" style="line;strokeWidth=1;fillColor=none;align=left;verticalAlign=middle;spacingTop=-1;spacingLeft=3;spacingRight=3;rotatable=0;labelPosition=right;points=[];portConstraint=eastwest;strokeColor=inherit;" vertex="1" parent="7hg7fwCNh3IDwbxx84Ut-118">
          <mxGeometry y="240.11764705882354" width="266" height="15" as="geometry" />
        </mxCell>
        <mxCell id="7hg7fwCNh3IDwbxx84Ut-127" value="Transacao" style="swimlane;fontStyle=1;align=center;verticalAlign=top;childLayout=stackLayout;horizontal=1;startSize=28.16;horizontalStack=0;resizeParent=1;resizeParentMax=0;resizeLast=0;collapsible=0;marginBottom=0;" vertex="1" parent="1">
          <mxGeometry x="9371" y="11327" width="273" height="350.15999999999997" as="geometry" />
        </mxCell>
        <mxCell id="7hg7fwCNh3IDwbxx84Ut-128" value="+int id" style="text;strokeColor=none;fillColor=none;align=left;verticalAlign=top;spacingLeft=4;spacingRight=4;overflow=hidden;rotatable=0;points=[[0,0.5],[1,0.5]];portConstraint=eastwest;" vertex="1" parent="7hg7fwCNh3IDwbxx84Ut-127">
          <mxGeometry y="28.16" width="273" height="28" as="geometry" />
        </mxCell>
        <mxCell id="7hg7fwCNh3IDwbxx84Ut-129" value="+int usuario_id" style="text;strokeColor=none;fillColor=none;align=left;verticalAlign=top;spacingLeft=4;spacingRight=4;overflow=hidden;rotatable=0;points=[[0,0.5],[1,0.5]];portConstraint=eastwest;" vertex="1" parent="7hg7fwCNh3IDwbxx84Ut-127">
          <mxGeometry y="56.16" width="273" height="28" as="geometry" />
        </mxCell>
        <mxCell id="7hg7fwCNh3IDwbxx84Ut-130" value="+int carteira_id" style="text;strokeColor=none;fillColor=none;align=left;verticalAlign=top;spacingLeft=4;spacingRight=4;overflow=hidden;rotatable=0;points=[[0,0.5],[1,0.5]];portConstraint=eastwest;" vertex="1" parent="7hg7fwCNh3IDwbxx84Ut-127">
          <mxGeometry y="84.16" width="273" height="28" as="geometry" />
        </mxCell>
        <mxCell id="7hg7fwCNh3IDwbxx84Ut-131" value="+string tipo" style="text;strokeColor=none;fillColor=none;align=left;verticalAlign=top;spacingLeft=4;spacingRight=4;overflow=hidden;rotatable=0;points=[[0,0.5],[1,0.5]];portConstraint=eastwest;" vertex="1" parent="7hg7fwCNh3IDwbxx84Ut-127">
          <mxGeometry y="112.16" width="273" height="28" as="geometry" />
        </mxCell>
        <mxCell id="7hg7fwCNh3IDwbxx84Ut-132" value="+decimal valor" style="text;strokeColor=none;fillColor=none;align=left;verticalAlign=top;spacingLeft=4;spacingRight=4;overflow=hidden;rotatable=0;points=[[0,0.5],[1,0.5]];portConstraint=eastwest;" vertex="1" parent="7hg7fwCNh3IDwbxx84Ut-127">
          <mxGeometry y="140.16" width="273" height="28" as="geometry" />
        </mxCell>
        <mxCell id="7hg7fwCNh3IDwbxx84Ut-133" value="+string metodo_pagamento" style="text;strokeColor=none;fillColor=none;align=left;verticalAlign=top;spacingLeft=4;spacingRight=4;overflow=hidden;rotatable=0;points=[[0,0.5],[1,0.5]];portConstraint=eastwest;" vertex="1" parent="7hg7fwCNh3IDwbxx84Ut-127">
          <mxGeometry y="168.16" width="273" height="28" as="geometry" />
        </mxCell>
        <mxCell id="7hg7fwCNh3IDwbxx84Ut-134" value="+string local" style="text;strokeColor=none;fillColor=none;align=left;verticalAlign=top;spacingLeft=4;spacingRight=4;overflow=hidden;rotatable=0;points=[[0,0.5],[1,0.5]];portConstraint=eastwest;" vertex="1" parent="7hg7fwCNh3IDwbxx84Ut-127">
          <mxGeometry y="196.16" width="273" height="28" as="geometry" />
        </mxCell>
        <mxCell id="7hg7fwCNh3IDwbxx84Ut-135" value="+string descricao" style="text;strokeColor=none;fillColor=none;align=left;verticalAlign=top;spacingLeft=4;spacingRight=4;overflow=hidden;rotatable=0;points=[[0,0.5],[1,0.5]];portConstraint=eastwest;" vertex="1" parent="7hg7fwCNh3IDwbxx84Ut-127">
          <mxGeometry y="224.16" width="273" height="28" as="geometry" />
        </mxCell>
        <mxCell id="7hg7fwCNh3IDwbxx84Ut-136" value="+timestamp data_transacao" style="text;strokeColor=none;fillColor=none;align=left;verticalAlign=top;spacingLeft=4;spacingRight=4;overflow=hidden;rotatable=0;points=[[0,0.5],[1,0.5]];portConstraint=eastwest;" vertex="1" parent="7hg7fwCNh3IDwbxx84Ut-127">
          <mxGeometry y="252.16" width="273" height="28" as="geometry" />
        </mxCell>
        <mxCell id="7hg7fwCNh3IDwbxx84Ut-137" value="+timestamp data_criacao" style="text;strokeColor=none;fillColor=none;align=left;verticalAlign=top;spacingLeft=4;spacingRight=4;overflow=hidden;rotatable=0;points=[[0,0.5],[1,0.5]];portConstraint=eastwest;" vertex="1" parent="7hg7fwCNh3IDwbxx84Ut-127">
          <mxGeometry y="280.15999999999997" width="273" height="28" as="geometry" />
        </mxCell>
        <mxCell id="7hg7fwCNh3IDwbxx84Ut-138" value="+timestamp data_atualizacao" style="text;strokeColor=none;fillColor=none;align=left;verticalAlign=top;spacingLeft=4;spacingRight=4;overflow=hidden;rotatable=0;points=[[0,0.5],[1,0.5]];portConstraint=eastwest;" vertex="1" parent="7hg7fwCNh3IDwbxx84Ut-127">
          <mxGeometry y="308.15999999999997" width="273" height="28" as="geometry" />
        </mxCell>
        <mxCell id="7hg7fwCNh3IDwbxx84Ut-139" style="line;strokeWidth=1;fillColor=none;align=left;verticalAlign=middle;spacingTop=-1;spacingLeft=3;spacingRight=3;rotatable=0;labelPosition=right;points=[];portConstraint=eastwest;strokeColor=inherit;" vertex="1" parent="7hg7fwCNh3IDwbxx84Ut-127">
          <mxGeometry y="336.15999999999997" width="273" height="14" as="geometry" />
        </mxCell>
        <mxCell id="7hg7fwCNh3IDwbxx84Ut-140" value="Label" style="swimlane;fontStyle=1;align=center;verticalAlign=top;childLayout=stackLayout;horizontal=1;startSize=35.55555555555556;horizontalStack=0;resizeParent=1;resizeParentMax=0;resizeLast=0;collapsible=0;marginBottom=0;" vertex="1" parent="1">
          <mxGeometry x="9830" y="11808" width="151" height="161.55555555555554" as="geometry" />
        </mxCell>
        <mxCell id="7hg7fwCNh3IDwbxx84Ut-141" value="+int id" style="text;strokeColor=none;fillColor=none;align=left;verticalAlign=top;spacingLeft=4;spacingRight=4;overflow=hidden;rotatable=0;points=[[0,0.5],[1,0.5]];portConstraint=eastwest;" vertex="1" parent="7hg7fwCNh3IDwbxx84Ut-140">
          <mxGeometry y="35.55555555555556" width="151" height="36" as="geometry" />
        </mxCell>
        <mxCell id="7hg7fwCNh3IDwbxx84Ut-142" value="+int usuario_id" style="text;strokeColor=none;fillColor=none;align=left;verticalAlign=top;spacingLeft=4;spacingRight=4;overflow=hidden;rotatable=0;points=[[0,0.5],[1,0.5]];portConstraint=eastwest;" vertex="1" parent="7hg7fwCNh3IDwbxx84Ut-140">
          <mxGeometry y="71.55555555555556" width="151" height="36" as="geometry" />
        </mxCell>
        <mxCell id="7hg7fwCNh3IDwbxx84Ut-143" value="+string nome" style="text;strokeColor=none;fillColor=none;align=left;verticalAlign=top;spacingLeft=4;spacingRight=4;overflow=hidden;rotatable=0;points=[[0,0.5],[1,0.5]];portConstraint=eastwest;" vertex="1" parent="7hg7fwCNh3IDwbxx84Ut-140">
          <mxGeometry y="107.55555555555556" width="151" height="36" as="geometry" />
        </mxCell>
        <mxCell id="7hg7fwCNh3IDwbxx84Ut-144" style="line;strokeWidth=1;fillColor=none;align=left;verticalAlign=middle;spacingTop=-1;spacingLeft=3;spacingRight=3;rotatable=0;labelPosition=right;points=[];portConstraint=eastwest;strokeColor=inherit;" vertex="1" parent="7hg7fwCNh3IDwbxx84Ut-140">
          <mxGeometry y="143.55555555555554" width="151" height="18" as="geometry" />
        </mxCell>
        <mxCell id="7hg7fwCNh3IDwbxx84Ut-145" value="Transacao_Label" style="swimlane;fontStyle=1;align=center;verticalAlign=top;childLayout=stackLayout;horizontal=1;startSize=38.857142857142854;horizontalStack=0;resizeParent=1;resizeParentMax=0;resizeLast=0;collapsible=0;marginBottom=0;" vertex="1" parent="1">
          <mxGeometry x="10660" y="10810" width="210" height="135.85714285714286" as="geometry" />
        </mxCell>
        <mxCell id="7hg7fwCNh3IDwbxx84Ut-146" value="+int transacao_id" style="text;strokeColor=none;fillColor=none;align=left;verticalAlign=top;spacingLeft=4;spacingRight=4;overflow=hidden;rotatable=0;points=[[0,0.5],[1,0.5]];portConstraint=eastwest;" vertex="1" parent="7hg7fwCNh3IDwbxx84Ut-145">
          <mxGeometry y="38.857142857142854" width="210" height="39" as="geometry" />
        </mxCell>
        <mxCell id="7hg7fwCNh3IDwbxx84Ut-147" value="+int label_id" style="text;strokeColor=none;fillColor=none;align=left;verticalAlign=top;spacingLeft=4;spacingRight=4;overflow=hidden;rotatable=0;points=[[0,0.5],[1,0.5]];portConstraint=eastwest;" vertex="1" parent="7hg7fwCNh3IDwbxx84Ut-145">
          <mxGeometry y="77.85714285714286" width="210" height="39" as="geometry" />
        </mxCell>
        <mxCell id="7hg7fwCNh3IDwbxx84Ut-148" style="line;strokeWidth=1;fillColor=none;align=left;verticalAlign=middle;spacingTop=-1;spacingLeft=3;spacingRight=3;rotatable=0;labelPosition=right;points=[];portConstraint=eastwest;strokeColor=inherit;" vertex="1" parent="7hg7fwCNh3IDwbxx84Ut-145">
          <mxGeometry y="116.85714285714286" width="210" height="19" as="geometry" />
        </mxCell>
        <mxCell id="7hg7fwCNh3IDwbxx84Ut-149" value="GastoFixo" style="swimlane;fontStyle=1;align=center;verticalAlign=top;childLayout=stackLayout;horizontal=1;startSize=29.473684210526315;horizontalStack=0;resizeParent=1;resizeParentMax=0;resizeLast=0;collapsible=0;marginBottom=0;" vertex="1" parent="1">
          <mxGeometry x="5706" y="11363" width="273" height="276.4736842105263" as="geometry" />
        </mxCell>
        <mxCell id="7hg7fwCNh3IDwbxx84Ut-150" value="+int id" style="text;strokeColor=none;fillColor=none;align=left;verticalAlign=top;spacingLeft=4;spacingRight=4;overflow=hidden;rotatable=0;points=[[0,0.5],[1,0.5]];portConstraint=eastwest;" vertex="1" parent="7hg7fwCNh3IDwbxx84Ut-149">
          <mxGeometry y="29.473684210526315" width="273" height="29" as="geometry" />
        </mxCell>
        <mxCell id="7hg7fwCNh3IDwbxx84Ut-151" value="+int usuario_id" style="text;strokeColor=none;fillColor=none;align=left;verticalAlign=top;spacingLeft=4;spacingRight=4;overflow=hidden;rotatable=0;points=[[0,0.5],[1,0.5]];portConstraint=eastwest;" vertex="1" parent="7hg7fwCNh3IDwbxx84Ut-149">
          <mxGeometry y="58.473684210526315" width="273" height="29" as="geometry" />
        </mxCell>
        <mxCell id="7hg7fwCNh3IDwbxx84Ut-152" value="+int carteira_id" style="text;strokeColor=none;fillColor=none;align=left;verticalAlign=top;spacingLeft=4;spacingRight=4;overflow=hidden;rotatable=0;points=[[0,0.5],[1,0.5]];portConstraint=eastwest;" vertex="1" parent="7hg7fwCNh3IDwbxx84Ut-149">
          <mxGeometry y="87.47368421052632" width="273" height="29" as="geometry" />
        </mxCell>
        <mxCell id="7hg7fwCNh3IDwbxx84Ut-153" value="+string titulo" style="text;strokeColor=none;fillColor=none;align=left;verticalAlign=top;spacingLeft=4;spacingRight=4;overflow=hidden;rotatable=0;points=[[0,0.5],[1,0.5]];portConstraint=eastwest;" vertex="1" parent="7hg7fwCNh3IDwbxx84Ut-149">
          <mxGeometry y="116.47368421052632" width="273" height="29" as="geometry" />
        </mxCell>
        <mxCell id="7hg7fwCNh3IDwbxx84Ut-154" value="+decimal valor" style="text;strokeColor=none;fillColor=none;align=left;verticalAlign=top;spacingLeft=4;spacingRight=4;overflow=hidden;rotatable=0;points=[[0,0.5],[1,0.5]];portConstraint=eastwest;" vertex="1" parent="7hg7fwCNh3IDwbxx84Ut-149">
          <mxGeometry y="145.4736842105263" width="273" height="29" as="geometry" />
        </mxCell>
        <mxCell id="7hg7fwCNh3IDwbxx84Ut-155" value="+string frequencia" style="text;strokeColor=none;fillColor=none;align=left;verticalAlign=top;spacingLeft=4;spacingRight=4;overflow=hidden;rotatable=0;points=[[0,0.5],[1,0.5]];portConstraint=eastwest;" vertex="1" parent="7hg7fwCNh3IDwbxx84Ut-149">
          <mxGeometry y="174.4736842105263" width="273" height="29" as="geometry" />
        </mxCell>
        <mxCell id="7hg7fwCNh3IDwbxx84Ut-156" value="+timestamp data_criacao" style="text;strokeColor=none;fillColor=none;align=left;verticalAlign=top;spacingLeft=4;spacingRight=4;overflow=hidden;rotatable=0;points=[[0,0.5],[1,0.5]];portConstraint=eastwest;" vertex="1" parent="7hg7fwCNh3IDwbxx84Ut-149">
          <mxGeometry y="203.4736842105263" width="273" height="29" as="geometry" />
        </mxCell>
        <mxCell id="7hg7fwCNh3IDwbxx84Ut-157" value="+timestamp data_atualizacao" style="text;strokeColor=none;fillColor=none;align=left;verticalAlign=top;spacingLeft=4;spacingRight=4;overflow=hidden;rotatable=0;points=[[0,0.5],[1,0.5]];portConstraint=eastwest;" vertex="1" parent="7hg7fwCNh3IDwbxx84Ut-149">
          <mxGeometry y="232.4736842105263" width="273" height="29" as="geometry" />
        </mxCell>
        <mxCell id="7hg7fwCNh3IDwbxx84Ut-158" style="line;strokeWidth=1;fillColor=none;align=left;verticalAlign=middle;spacingTop=-1;spacingLeft=3;spacingRight=3;rotatable=0;labelPosition=right;points=[];portConstraint=eastwest;strokeColor=inherit;" vertex="1" parent="7hg7fwCNh3IDwbxx84Ut-149">
          <mxGeometry y="261.4736842105263" width="273" height="15" as="geometry" />
        </mxCell>
        <mxCell id="7hg7fwCNh3IDwbxx84Ut-159" value="LogTransacoes" style="swimlane;fontStyle=1;align=center;verticalAlign=top;childLayout=stackLayout;horizontal=1;startSize=32;horizontalStack=0;resizeParent=1;resizeParentMax=0;resizeLast=0;collapsible=0;marginBottom=0;" vertex="1" parent="1">
          <mxGeometry x="10097" y="10774" width="295" height="208" as="geometry" />
        </mxCell>
        <mxCell id="7hg7fwCNh3IDwbxx84Ut-160" value="+int id" style="text;strokeColor=none;fillColor=none;align=left;verticalAlign=top;spacingLeft=4;spacingRight=4;overflow=hidden;rotatable=0;points=[[0,0.5],[1,0.5]];portConstraint=eastwest;" vertex="1" parent="7hg7fwCNh3IDwbxx84Ut-159">
          <mxGeometry y="32" width="295" height="32" as="geometry" />
        </mxCell>
        <mxCell id="7hg7fwCNh3IDwbxx84Ut-161" value="+int transacao_id" style="text;strokeColor=none;fillColor=none;align=left;verticalAlign=top;spacingLeft=4;spacingRight=4;overflow=hidden;rotatable=0;points=[[0,0.5],[1,0.5]];portConstraint=eastwest;" vertex="1" parent="7hg7fwCNh3IDwbxx84Ut-159">
          <mxGeometry y="64" width="295" height="32" as="geometry" />
        </mxCell>
        <mxCell id="7hg7fwCNh3IDwbxx84Ut-162" value="+int usuario_id" style="text;strokeColor=none;fillColor=none;align=left;verticalAlign=top;spacingLeft=4;spacingRight=4;overflow=hidden;rotatable=0;points=[[0,0.5],[1,0.5]];portConstraint=eastwest;" vertex="1" parent="7hg7fwCNh3IDwbxx84Ut-159">
          <mxGeometry y="96" width="295" height="32" as="geometry" />
        </mxCell>
        <mxCell id="7hg7fwCNh3IDwbxx84Ut-163" value="+string operacao" style="text;strokeColor=none;fillColor=none;align=left;verticalAlign=top;spacingLeft=4;spacingRight=4;overflow=hidden;rotatable=0;points=[[0,0.5],[1,0.5]];portConstraint=eastwest;" vertex="1" parent="7hg7fwCNh3IDwbxx84Ut-159">
          <mxGeometry y="128" width="295" height="32" as="geometry" />
        </mxCell>
        <mxCell id="7hg7fwCNh3IDwbxx84Ut-164" value="+timestamp data_modificacao" style="text;strokeColor=none;fillColor=none;align=left;verticalAlign=top;spacingLeft=4;spacingRight=4;overflow=hidden;rotatable=0;points=[[0,0.5],[1,0.5]];portConstraint=eastwest;" vertex="1" parent="7hg7fwCNh3IDwbxx84Ut-159">
          <mxGeometry y="160" width="295" height="32" as="geometry" />
        </mxCell>
        <mxCell id="7hg7fwCNh3IDwbxx84Ut-165" style="line;strokeWidth=1;fillColor=none;align=left;verticalAlign=middle;spacingTop=-1;spacingLeft=3;spacingRight=3;rotatable=0;labelPosition=right;points=[];portConstraint=eastwest;strokeColor=inherit;" vertex="1" parent="7hg7fwCNh3IDwbxx84Ut-159">
          <mxGeometry y="192" width="295" height="16" as="geometry" />
        </mxCell>
        <mxCell id="7hg7fwCNh3IDwbxx84Ut-166" value="LogCarteiras" style="swimlane;fontStyle=1;align=center;verticalAlign=top;childLayout=stackLayout;horizontal=1;startSize=32;horizontalStack=0;resizeParent=1;resizeParentMax=0;resizeLast=0;collapsible=0;marginBottom=0;" vertex="1" parent="1">
          <mxGeometry x="6380" y="11399" width="288" height="208" as="geometry" />
        </mxCell>
        <mxCell id="7hg7fwCNh3IDwbxx84Ut-167" value="+int id" style="text;strokeColor=none;fillColor=none;align=left;verticalAlign=top;spacingLeft=4;spacingRight=4;overflow=hidden;rotatable=0;points=[[0,0.5],[1,0.5]];portConstraint=eastwest;" vertex="1" parent="7hg7fwCNh3IDwbxx84Ut-166">
          <mxGeometry y="32" width="288" height="32" as="geometry" />
        </mxCell>
        <mxCell id="7hg7fwCNh3IDwbxx84Ut-168" value="+int carteira_id" style="text;strokeColor=none;fillColor=none;align=left;verticalAlign=top;spacingLeft=4;spacingRight=4;overflow=hidden;rotatable=0;points=[[0,0.5],[1,0.5]];portConstraint=eastwest;" vertex="1" parent="7hg7fwCNh3IDwbxx84Ut-166">
          <mxGeometry y="64" width="288" height="32" as="geometry" />
        </mxCell>
        <mxCell id="7hg7fwCNh3IDwbxx84Ut-169" value="+int usuario_id" style="text;strokeColor=none;fillColor=none;align=left;verticalAlign=top;spacingLeft=4;spacingRight=4;overflow=hidden;rotatable=0;points=[[0,0.5],[1,0.5]];portConstraint=eastwest;" vertex="1" parent="7hg7fwCNh3IDwbxx84Ut-166">
          <mxGeometry y="96" width="288" height="32" as="geometry" />
        </mxCell>
        <mxCell id="7hg7fwCNh3IDwbxx84Ut-170" value="+string operacao" style="text;strokeColor=none;fillColor=none;align=left;verticalAlign=top;spacingLeft=4;spacingRight=4;overflow=hidden;rotatable=0;points=[[0,0.5],[1,0.5]];portConstraint=eastwest;" vertex="1" parent="7hg7fwCNh3IDwbxx84Ut-166">
          <mxGeometry y="128" width="288" height="32" as="geometry" />
        </mxCell>
        <mxCell id="7hg7fwCNh3IDwbxx84Ut-171" value="+timestamp data_modificacao" style="text;strokeColor=none;fillColor=none;align=left;verticalAlign=top;spacingLeft=4;spacingRight=4;overflow=hidden;rotatable=0;points=[[0,0.5],[1,0.5]];portConstraint=eastwest;" vertex="1" parent="7hg7fwCNh3IDwbxx84Ut-166">
          <mxGeometry y="160" width="288" height="32" as="geometry" />
        </mxCell>
        <mxCell id="7hg7fwCNh3IDwbxx84Ut-172" style="line;strokeWidth=1;fillColor=none;align=left;verticalAlign=middle;spacingTop=-1;spacingLeft=3;spacingRight=3;rotatable=0;labelPosition=right;points=[];portConstraint=eastwest;strokeColor=inherit;" vertex="1" parent="7hg7fwCNh3IDwbxx84Ut-166">
          <mxGeometry y="192" width="288" height="16" as="geometry" />
        </mxCell>
        <mxCell id="7hg7fwCNh3IDwbxx84Ut-173" value="LogGastosFixos" style="swimlane;fontStyle=1;align=center;verticalAlign=top;childLayout=stackLayout;horizontal=1;startSize=32;horizontalStack=0;resizeParent=1;resizeParentMax=0;resizeLast=0;collapsible=0;marginBottom=0;" vertex="1" parent="1">
          <mxGeometry x="5051" y="10774" width="298" height="208" as="geometry" />
        </mxCell>
        <mxCell id="7hg7fwCNh3IDwbxx84Ut-174" value="+int id" style="text;strokeColor=none;fillColor=none;align=left;verticalAlign=top;spacingLeft=4;spacingRight=4;overflow=hidden;rotatable=0;points=[[0,0.5],[1,0.5]];portConstraint=eastwest;" vertex="1" parent="7hg7fwCNh3IDwbxx84Ut-173">
          <mxGeometry y="32" width="298" height="32" as="geometry" />
        </mxCell>
        <mxCell id="7hg7fwCNh3IDwbxx84Ut-175" value="+int gasto_fixo_id" style="text;strokeColor=none;fillColor=none;align=left;verticalAlign=top;spacingLeft=4;spacingRight=4;overflow=hidden;rotatable=0;points=[[0,0.5],[1,0.5]];portConstraint=eastwest;" vertex="1" parent="7hg7fwCNh3IDwbxx84Ut-173">
          <mxGeometry y="64" width="298" height="32" as="geometry" />
        </mxCell>
        <mxCell id="7hg7fwCNh3IDwbxx84Ut-176" value="+int usuario_id" style="text;strokeColor=none;fillColor=none;align=left;verticalAlign=top;spacingLeft=4;spacingRight=4;overflow=hidden;rotatable=0;points=[[0,0.5],[1,0.5]];portConstraint=eastwest;" vertex="1" parent="7hg7fwCNh3IDwbxx84Ut-173">
          <mxGeometry y="96" width="298" height="32" as="geometry" />
        </mxCell>
        <mxCell id="7hg7fwCNh3IDwbxx84Ut-177" value="+string operacao" style="text;strokeColor=none;fillColor=none;align=left;verticalAlign=top;spacingLeft=4;spacingRight=4;overflow=hidden;rotatable=0;points=[[0,0.5],[1,0.5]];portConstraint=eastwest;" vertex="1" parent="7hg7fwCNh3IDwbxx84Ut-173">
          <mxGeometry y="128" width="298" height="32" as="geometry" />
        </mxCell>
        <mxCell id="7hg7fwCNh3IDwbxx84Ut-178" value="+timestamp data_modificacao" style="text;strokeColor=none;fillColor=none;align=left;verticalAlign=top;spacingLeft=4;spacingRight=4;overflow=hidden;rotatable=0;points=[[0,0.5],[1,0.5]];portConstraint=eastwest;" vertex="1" parent="7hg7fwCNh3IDwbxx84Ut-173">
          <mxGeometry y="160" width="298" height="32" as="geometry" />
        </mxCell>
        <mxCell id="7hg7fwCNh3IDwbxx84Ut-179" style="line;strokeWidth=1;fillColor=none;align=left;verticalAlign=middle;spacingTop=-1;spacingLeft=3;spacingRight=3;rotatable=0;labelPosition=right;points=[];portConstraint=eastwest;strokeColor=inherit;" vertex="1" parent="7hg7fwCNh3IDwbxx84Ut-173">
          <mxGeometry y="192" width="298" height="16" as="geometry" />
        </mxCell>
        <mxCell id="7hg7fwCNh3IDwbxx84Ut-180" value="MedidaCorporal" style="swimlane;fontStyle=1;align=center;verticalAlign=top;childLayout=stackLayout;horizontal=1;startSize=30.933333333333334;horizontalStack=0;resizeParent=1;resizeParentMax=0;resizeLast=0;collapsible=0;marginBottom=0;" vertex="1" parent="1">
          <mxGeometry x="4396" y="11387" width="271" height="231.93333333333334" as="geometry" />
        </mxCell>
        <mxCell id="7hg7fwCNh3IDwbxx84Ut-181" value="+int id" style="text;strokeColor=none;fillColor=none;align=left;verticalAlign=top;spacingLeft=4;spacingRight=4;overflow=hidden;rotatable=0;points=[[0,0.5],[1,0.5]];portConstraint=eastwest;" vertex="1" parent="7hg7fwCNh3IDwbxx84Ut-180">
          <mxGeometry y="30.933333333333334" width="271" height="31" as="geometry" />
        </mxCell>
        <mxCell id="7hg7fwCNh3IDwbxx84Ut-182" value="+int usuario_id" style="text;strokeColor=none;fillColor=none;align=left;verticalAlign=top;spacingLeft=4;spacingRight=4;overflow=hidden;rotatable=0;points=[[0,0.5],[1,0.5]];portConstraint=eastwest;" vertex="1" parent="7hg7fwCNh3IDwbxx84Ut-180">
          <mxGeometry y="61.93333333333334" width="271" height="31" as="geometry" />
        </mxCell>
        <mxCell id="7hg7fwCNh3IDwbxx84Ut-183" value="+string parte_corpo" style="text;strokeColor=none;fillColor=none;align=left;verticalAlign=top;spacingLeft=4;spacingRight=4;overflow=hidden;rotatable=0;points=[[0,0.5],[1,0.5]];portConstraint=eastwest;" vertex="1" parent="7hg7fwCNh3IDwbxx84Ut-180">
          <mxGeometry y="92.93333333333334" width="271" height="31" as="geometry" />
        </mxCell>
        <mxCell id="7hg7fwCNh3IDwbxx84Ut-184" value="+float circunferencia_cm" style="text;strokeColor=none;fillColor=none;align=left;verticalAlign=top;spacingLeft=4;spacingRight=4;overflow=hidden;rotatable=0;points=[[0,0.5],[1,0.5]];portConstraint=eastwest;" vertex="1" parent="7hg7fwCNh3IDwbxx84Ut-180">
          <mxGeometry y="123.93333333333334" width="271" height="31" as="geometry" />
        </mxCell>
        <mxCell id="7hg7fwCNh3IDwbxx84Ut-185" value="+float dobra_cutanea_mm" style="text;strokeColor=none;fillColor=none;align=left;verticalAlign=top;spacingLeft=4;spacingRight=4;overflow=hidden;rotatable=0;points=[[0,0.5],[1,0.5]];portConstraint=eastwest;" vertex="1" parent="7hg7fwCNh3IDwbxx84Ut-180">
          <mxGeometry y="154.93333333333334" width="271" height="31" as="geometry" />
        </mxCell>
        <mxCell id="7hg7fwCNh3IDwbxx84Ut-186" value="+timestamp data_registro" style="text;strokeColor=none;fillColor=none;align=left;verticalAlign=top;spacingLeft=4;spacingRight=4;overflow=hidden;rotatable=0;points=[[0,0.5],[1,0.5]];portConstraint=eastwest;" vertex="1" parent="7hg7fwCNh3IDwbxx84Ut-180">
          <mxGeometry y="185.93333333333334" width="271" height="31" as="geometry" />
        </mxCell>
        <mxCell id="7hg7fwCNh3IDwbxx84Ut-187" style="line;strokeWidth=1;fillColor=none;align=left;verticalAlign=middle;spacingTop=-1;spacingLeft=3;spacingRight=3;rotatable=0;labelPosition=right;points=[];portConstraint=eastwest;strokeColor=inherit;" vertex="1" parent="7hg7fwCNh3IDwbxx84Ut-180">
          <mxGeometry y="216.93333333333334" width="271" height="15" as="geometry" />
        </mxCell>
        <mxCell id="7hg7fwCNh3IDwbxx84Ut-188" value="Peso" style="swimlane;fontStyle=1;align=center;verticalAlign=top;childLayout=stackLayout;horizontal=1;startSize=33.45454545454545;horizontalStack=0;resizeParent=1;resizeParentMax=0;resizeLast=0;collapsible=0;marginBottom=0;" vertex="1" parent="1">
          <mxGeometry x="6718" y="11411" width="226" height="182.45454545454544" as="geometry" />
        </mxCell>
        <mxCell id="7hg7fwCNh3IDwbxx84Ut-189" value="+int id" style="text;strokeColor=none;fillColor=none;align=left;verticalAlign=top;spacingLeft=4;spacingRight=4;overflow=hidden;rotatable=0;points=[[0,0.5],[1,0.5]];portConstraint=eastwest;" vertex="1" parent="7hg7fwCNh3IDwbxx84Ut-188">
          <mxGeometry y="33.45454545454545" width="226" height="33" as="geometry" />
        </mxCell>
        <mxCell id="7hg7fwCNh3IDwbxx84Ut-190" value="+int usuario_id" style="text;strokeColor=none;fillColor=none;align=left;verticalAlign=top;spacingLeft=4;spacingRight=4;overflow=hidden;rotatable=0;points=[[0,0.5],[1,0.5]];portConstraint=eastwest;" vertex="1" parent="7hg7fwCNh3IDwbxx84Ut-188">
          <mxGeometry y="66.45454545454545" width="226" height="33" as="geometry" />
        </mxCell>
        <mxCell id="7hg7fwCNh3IDwbxx84Ut-191" value="+float peso_kg" style="text;strokeColor=none;fillColor=none;align=left;verticalAlign=top;spacingLeft=4;spacingRight=4;overflow=hidden;rotatable=0;points=[[0,0.5],[1,0.5]];portConstraint=eastwest;" vertex="1" parent="7hg7fwCNh3IDwbxx84Ut-188">
          <mxGeometry y="99.45454545454545" width="226" height="33" as="geometry" />
        </mxCell>
        <mxCell id="7hg7fwCNh3IDwbxx84Ut-192" value="+timestamp data_registro" style="text;strokeColor=none;fillColor=none;align=left;verticalAlign=top;spacingLeft=4;spacingRight=4;overflow=hidden;rotatable=0;points=[[0,0.5],[1,0.5]];portConstraint=eastwest;" vertex="1" parent="7hg7fwCNh3IDwbxx84Ut-188">
          <mxGeometry y="132.45454545454544" width="226" height="33" as="geometry" />
        </mxCell>
        <mxCell id="7hg7fwCNh3IDwbxx84Ut-193" style="line;strokeWidth=1;fillColor=none;align=left;verticalAlign=middle;spacingTop=-1;spacingLeft=3;spacingRight=3;rotatable=0;labelPosition=right;points=[];portConstraint=eastwest;strokeColor=inherit;" vertex="1" parent="7hg7fwCNh3IDwbxx84Ut-188">
          <mxGeometry y="165.45454545454544" width="226" height="17" as="geometry" />
        </mxCell>
        <mxCell id="7hg7fwCNh3IDwbxx84Ut-194" value="Exercicios" style="swimlane;fontStyle=1;align=center;verticalAlign=top;childLayout=stackLayout;horizontal=1;startSize=30.11764705882353;horizontalStack=0;resizeParent=1;resizeParentMax=0;resizeLast=0;collapsible=0;marginBottom=0;" vertex="1" parent="1">
          <mxGeometry x="7039" y="11375" width="247" height="255.11764705882354" as="geometry" />
        </mxCell>
        <mxCell id="7hg7fwCNh3IDwbxx84Ut-195" value="+int id" style="text;strokeColor=none;fillColor=none;align=left;verticalAlign=top;spacingLeft=4;spacingRight=4;overflow=hidden;rotatable=0;points=[[0,0.5],[1,0.5]];portConstraint=eastwest;" vertex="1" parent="7hg7fwCNh3IDwbxx84Ut-194">
          <mxGeometry y="30.11764705882353" width="247" height="30" as="geometry" />
        </mxCell>
        <mxCell id="7hg7fwCNh3IDwbxx84Ut-196" value="+int usuario_id" style="text;strokeColor=none;fillColor=none;align=left;verticalAlign=top;spacingLeft=4;spacingRight=4;overflow=hidden;rotatable=0;points=[[0,0.5],[1,0.5]];portConstraint=eastwest;" vertex="1" parent="7hg7fwCNh3IDwbxx84Ut-194">
          <mxGeometry y="60.11764705882353" width="247" height="30" as="geometry" />
        </mxCell>
        <mxCell id="7hg7fwCNh3IDwbxx84Ut-197" value="+string nome" style="text;strokeColor=none;fillColor=none;align=left;verticalAlign=top;spacingLeft=4;spacingRight=4;overflow=hidden;rotatable=0;points=[[0,0.5],[1,0.5]];portConstraint=eastwest;" vertex="1" parent="7hg7fwCNh3IDwbxx84Ut-194">
          <mxGeometry y="90.11764705882354" width="247" height="30" as="geometry" />
        </mxCell>
        <mxCell id="7hg7fwCNh3IDwbxx84Ut-198" value="+int total_acumulado" style="text;strokeColor=none;fillColor=none;align=left;verticalAlign=top;spacingLeft=4;spacingRight=4;overflow=hidden;rotatable=0;points=[[0,0.5],[1,0.5]];portConstraint=eastwest;" vertex="1" parent="7hg7fwCNh3IDwbxx84Ut-194">
          <mxGeometry y="120.11764705882354" width="247" height="30" as="geometry" />
        </mxCell>
        <mxCell id="7hg7fwCNh3IDwbxx84Ut-199" value="+int max_dia" style="text;strokeColor=none;fillColor=none;align=left;verticalAlign=top;spacingLeft=4;spacingRight=4;overflow=hidden;rotatable=0;points=[[0,0.5],[1,0.5]];portConstraint=eastwest;" vertex="1" parent="7hg7fwCNh3IDwbxx84Ut-194">
          <mxGeometry y="150.11764705882354" width="247" height="30" as="geometry" />
        </mxCell>
        <mxCell id="7hg7fwCNh3IDwbxx84Ut-200" value="+int max_sem_descanso" style="text;strokeColor=none;fillColor=none;align=left;verticalAlign=top;spacingLeft=4;spacingRight=4;overflow=hidden;rotatable=0;points=[[0,0.5],[1,0.5]];portConstraint=eastwest;" vertex="1" parent="7hg7fwCNh3IDwbxx84Ut-194">
          <mxGeometry y="180.11764705882354" width="247" height="30" as="geometry" />
        </mxCell>
        <mxCell id="7hg7fwCNh3IDwbxx84Ut-201" value="+timestamp data_registro" style="text;strokeColor=none;fillColor=none;align=left;verticalAlign=top;spacingLeft=4;spacingRight=4;overflow=hidden;rotatable=0;points=[[0,0.5],[1,0.5]];portConstraint=eastwest;" vertex="1" parent="7hg7fwCNh3IDwbxx84Ut-194">
          <mxGeometry y="210.11764705882354" width="247" height="30" as="geometry" />
        </mxCell>
        <mxCell id="7hg7fwCNh3IDwbxx84Ut-202" style="line;strokeWidth=1;fillColor=none;align=left;verticalAlign=middle;spacingTop=-1;spacingLeft=3;spacingRight=3;rotatable=0;labelPosition=right;points=[];portConstraint=eastwest;strokeColor=inherit;" vertex="1" parent="7hg7fwCNh3IDwbxx84Ut-194">
          <mxGeometry y="240.11764705882354" width="247" height="15" as="geometry" />
        </mxCell>
        <mxCell id="7hg7fwCNh3IDwbxx84Ut-203" value="Alimentacao" style="swimlane;fontStyle=1;align=center;verticalAlign=top;childLayout=stackLayout;horizontal=1;startSize=30.11764705882353;horizontalStack=0;resizeParent=1;resizeParentMax=0;resizeLast=0;collapsible=0;marginBottom=0;" vertex="1" parent="1">
          <mxGeometry x="8019" y="11375" width="256" height="255.11764705882354" as="geometry" />
        </mxCell>
        <mxCell id="7hg7fwCNh3IDwbxx84Ut-204" value="+int id" style="text;strokeColor=none;fillColor=none;align=left;verticalAlign=top;spacingLeft=4;spacingRight=4;overflow=hidden;rotatable=0;points=[[0,0.5],[1,0.5]];portConstraint=eastwest;" vertex="1" parent="7hg7fwCNh3IDwbxx84Ut-203">
          <mxGeometry y="30.11764705882353" width="256" height="30" as="geometry" />
        </mxCell>
        <mxCell id="7hg7fwCNh3IDwbxx84Ut-205" value="+int usuario_id" style="text;strokeColor=none;fillColor=none;align=left;verticalAlign=top;spacingLeft=4;spacingRight=4;overflow=hidden;rotatable=0;points=[[0,0.5],[1,0.5]];portConstraint=eastwest;" vertex="1" parent="7hg7fwCNh3IDwbxx84Ut-203">
          <mxGeometry y="60.11764705882353" width="256" height="30" as="geometry" />
        </mxCell>
        <mxCell id="7hg7fwCNh3IDwbxx84Ut-206" value="+string alimento" style="text;strokeColor=none;fillColor=none;align=left;verticalAlign=top;spacingLeft=4;spacingRight=4;overflow=hidden;rotatable=0;points=[[0,0.5],[1,0.5]];portConstraint=eastwest;" vertex="1" parent="7hg7fwCNh3IDwbxx84Ut-203">
          <mxGeometry y="90.11764705882354" width="256" height="30" as="geometry" />
        </mxCell>
        <mxCell id="7hg7fwCNh3IDwbxx84Ut-207" value="+float quantidade_g" style="text;strokeColor=none;fillColor=none;align=left;verticalAlign=top;spacingLeft=4;spacingRight=4;overflow=hidden;rotatable=0;points=[[0,0.5],[1,0.5]];portConstraint=eastwest;" vertex="1" parent="7hg7fwCNh3IDwbxx84Ut-203">
          <mxGeometry y="120.11764705882354" width="256" height="30" as="geometry" />
        </mxCell>
        <mxCell id="7hg7fwCNh3IDwbxx84Ut-208" value="+float proteina_g" style="text;strokeColor=none;fillColor=none;align=left;verticalAlign=top;spacingLeft=4;spacingRight=4;overflow=hidden;rotatable=0;points=[[0,0.5],[1,0.5]];portConstraint=eastwest;" vertex="1" parent="7hg7fwCNh3IDwbxx84Ut-203">
          <mxGeometry y="150.11764705882354" width="256" height="30" as="geometry" />
        </mxCell>
        <mxCell id="7hg7fwCNh3IDwbxx84Ut-209" value="+float kcal" style="text;strokeColor=none;fillColor=none;align=left;verticalAlign=top;spacingLeft=4;spacingRight=4;overflow=hidden;rotatable=0;points=[[0,0.5],[1,0.5]];portConstraint=eastwest;" vertex="1" parent="7hg7fwCNh3IDwbxx84Ut-203">
          <mxGeometry y="180.11764705882354" width="256" height="30" as="geometry" />
        </mxCell>
        <mxCell id="7hg7fwCNh3IDwbxx84Ut-210" value="+timestamp data_registro" style="text;strokeColor=none;fillColor=none;align=left;verticalAlign=top;spacingLeft=4;spacingRight=4;overflow=hidden;rotatable=0;points=[[0,0.5],[1,0.5]];portConstraint=eastwest;" vertex="1" parent="7hg7fwCNh3IDwbxx84Ut-203">
          <mxGeometry y="210.11764705882354" width="256" height="30" as="geometry" />
        </mxCell>
        <mxCell id="7hg7fwCNh3IDwbxx84Ut-211" style="line;strokeWidth=1;fillColor=none;align=left;verticalAlign=middle;spacingTop=-1;spacingLeft=3;spacingRight=3;rotatable=0;labelPosition=right;points=[];portConstraint=eastwest;strokeColor=inherit;" vertex="1" parent="7hg7fwCNh3IDwbxx84Ut-203">
          <mxGeometry y="240.11764705882354" width="256" height="15" as="geometry" />
        </mxCell>
        <mxCell id="7hg7fwCNh3IDwbxx84Ut-212" value="Agua" style="swimlane;fontStyle=1;align=center;verticalAlign=top;childLayout=stackLayout;horizontal=1;startSize=33.45454545454545;horizontalStack=0;resizeParent=1;resizeParentMax=0;resizeLast=0;collapsible=0;marginBottom=0;" vertex="1" parent="1">
          <mxGeometry x="8374" y="11411" width="227" height="182.45454545454544" as="geometry" />
        </mxCell>
        <mxCell id="7hg7fwCNh3IDwbxx84Ut-213" value="+int id" style="text;strokeColor=none;fillColor=none;align=left;verticalAlign=top;spacingLeft=4;spacingRight=4;overflow=hidden;rotatable=0;points=[[0,0.5],[1,0.5]];portConstraint=eastwest;" vertex="1" parent="7hg7fwCNh3IDwbxx84Ut-212">
          <mxGeometry y="33.45454545454545" width="227" height="33" as="geometry" />
        </mxCell>
        <mxCell id="7hg7fwCNh3IDwbxx84Ut-214" value="+int usuario_id" style="text;strokeColor=none;fillColor=none;align=left;verticalAlign=top;spacingLeft=4;spacingRight=4;overflow=hidden;rotatable=0;points=[[0,0.5],[1,0.5]];portConstraint=eastwest;" vertex="1" parent="7hg7fwCNh3IDwbxx84Ut-212">
          <mxGeometry y="66.45454545454545" width="227" height="33" as="geometry" />
        </mxCell>
        <mxCell id="7hg7fwCNh3IDwbxx84Ut-215" value="+float quantidade_ml" style="text;strokeColor=none;fillColor=none;align=left;verticalAlign=top;spacingLeft=4;spacingRight=4;overflow=hidden;rotatable=0;points=[[0,0.5],[1,0.5]];portConstraint=eastwest;" vertex="1" parent="7hg7fwCNh3IDwbxx84Ut-212">
          <mxGeometry y="99.45454545454545" width="227" height="33" as="geometry" />
        </mxCell>
        <mxCell id="7hg7fwCNh3IDwbxx84Ut-216" value="+timestamp data_registro" style="text;strokeColor=none;fillColor=none;align=left;verticalAlign=top;spacingLeft=4;spacingRight=4;overflow=hidden;rotatable=0;points=[[0,0.5],[1,0.5]];portConstraint=eastwest;" vertex="1" parent="7hg7fwCNh3IDwbxx84Ut-212">
          <mxGeometry y="132.45454545454544" width="227" height="33" as="geometry" />
        </mxCell>
        <mxCell id="7hg7fwCNh3IDwbxx84Ut-217" style="line;strokeWidth=1;fillColor=none;align=left;verticalAlign=middle;spacingTop=-1;spacingLeft=3;spacingRight=3;rotatable=0;labelPosition=right;points=[];portConstraint=eastwest;strokeColor=inherit;" vertex="1" parent="7hg7fwCNh3IDwbxx84Ut-212">
          <mxGeometry y="165.45454545454544" width="227" height="17" as="geometry" />
        </mxCell>
        <mxCell id="7hg7fwCNh3IDwbxx84Ut-218" value="Sono" style="swimlane;fontStyle=1;align=center;verticalAlign=top;childLayout=stackLayout;horizontal=1;startSize=30.933333333333334;horizontalStack=0;resizeParent=1;resizeParentMax=0;resizeLast=0;collapsible=0;marginBottom=0;" vertex="1" parent="1">
          <mxGeometry x="8703" y="11387" width="227" height="231.93333333333334" as="geometry" />
        </mxCell>
        <mxCell id="7hg7fwCNh3IDwbxx84Ut-219" value="+int id" style="text;strokeColor=none;fillColor=none;align=left;verticalAlign=top;spacingLeft=4;spacingRight=4;overflow=hidden;rotatable=0;points=[[0,0.5],[1,0.5]];portConstraint=eastwest;" vertex="1" parent="7hg7fwCNh3IDwbxx84Ut-218">
          <mxGeometry y="30.933333333333334" width="227" height="31" as="geometry" />
        </mxCell>
        <mxCell id="7hg7fwCNh3IDwbxx84Ut-220" value="+int usuario_id" style="text;strokeColor=none;fillColor=none;align=left;verticalAlign=top;spacingLeft=4;spacingRight=4;overflow=hidden;rotatable=0;points=[[0,0.5],[1,0.5]];portConstraint=eastwest;" vertex="1" parent="7hg7fwCNh3IDwbxx84Ut-218">
          <mxGeometry y="61.93333333333334" width="227" height="31" as="geometry" />
        </mxCell>
        <mxCell id="7hg7fwCNh3IDwbxx84Ut-221" value="+time hora_dormiu" style="text;strokeColor=none;fillColor=none;align=left;verticalAlign=top;spacingLeft=4;spacingRight=4;overflow=hidden;rotatable=0;points=[[0,0.5],[1,0.5]];portConstraint=eastwest;" vertex="1" parent="7hg7fwCNh3IDwbxx84Ut-218">
          <mxGeometry y="92.93333333333334" width="227" height="31" as="geometry" />
        </mxCell>
        <mxCell id="7hg7fwCNh3IDwbxx84Ut-222" value="+time hora_acordou" style="text;strokeColor=none;fillColor=none;align=left;verticalAlign=top;spacingLeft=4;spacingRight=4;overflow=hidden;rotatable=0;points=[[0,0.5],[1,0.5]];portConstraint=eastwest;" vertex="1" parent="7hg7fwCNh3IDwbxx84Ut-218">
          <mxGeometry y="123.93333333333334" width="227" height="31" as="geometry" />
        </mxCell>
        <mxCell id="7hg7fwCNh3IDwbxx84Ut-223" value="+int qualidade_sono" style="text;strokeColor=none;fillColor=none;align=left;verticalAlign=top;spacingLeft=4;spacingRight=4;overflow=hidden;rotatable=0;points=[[0,0.5],[1,0.5]];portConstraint=eastwest;" vertex="1" parent="7hg7fwCNh3IDwbxx84Ut-218">
          <mxGeometry y="154.93333333333334" width="227" height="31" as="geometry" />
        </mxCell>
        <mxCell id="7hg7fwCNh3IDwbxx84Ut-224" value="+timestamp data_registro" style="text;strokeColor=none;fillColor=none;align=left;verticalAlign=top;spacingLeft=4;spacingRight=4;overflow=hidden;rotatable=0;points=[[0,0.5],[1,0.5]];portConstraint=eastwest;" vertex="1" parent="7hg7fwCNh3IDwbxx84Ut-218">
          <mxGeometry y="185.93333333333334" width="227" height="31" as="geometry" />
        </mxCell>
        <mxCell id="7hg7fwCNh3IDwbxx84Ut-225" style="line;strokeWidth=1;fillColor=none;align=left;verticalAlign=middle;spacingTop=-1;spacingLeft=3;spacingRight=3;rotatable=0;labelPosition=right;points=[];portConstraint=eastwest;strokeColor=inherit;" vertex="1" parent="7hg7fwCNh3IDwbxx84Ut-218">
          <mxGeometry y="216.93333333333334" width="227" height="15" as="geometry" />
        </mxCell>
        <mxCell id="7hg7fwCNh3IDwbxx84Ut-226" value="Suplementos" style="swimlane;fontStyle=1;align=center;verticalAlign=top;childLayout=stackLayout;horizontal=1;startSize=30.933333333333334;horizontalStack=0;resizeParent=1;resizeParentMax=0;resizeLast=0;collapsible=0;marginBottom=0;" vertex="1" parent="1">
          <mxGeometry x="9694" y="11387" width="257" height="231.93333333333334" as="geometry" />
        </mxCell>
        <mxCell id="7hg7fwCNh3IDwbxx84Ut-227" value="+int id" style="text;strokeColor=none;fillColor=none;align=left;verticalAlign=top;spacingLeft=4;spacingRight=4;overflow=hidden;rotatable=0;points=[[0,0.5],[1,0.5]];portConstraint=eastwest;" vertex="1" parent="7hg7fwCNh3IDwbxx84Ut-226">
          <mxGeometry y="30.933333333333334" width="257" height="31" as="geometry" />
        </mxCell>
        <mxCell id="7hg7fwCNh3IDwbxx84Ut-228" value="+int usuario_id" style="text;strokeColor=none;fillColor=none;align=left;verticalAlign=top;spacingLeft=4;spacingRight=4;overflow=hidden;rotatable=0;points=[[0,0.5],[1,0.5]];portConstraint=eastwest;" vertex="1" parent="7hg7fwCNh3IDwbxx84Ut-226">
          <mxGeometry y="61.93333333333334" width="257" height="31" as="geometry" />
        </mxCell>
        <mxCell id="7hg7fwCNh3IDwbxx84Ut-229" value="+string nome" style="text;strokeColor=none;fillColor=none;align=left;verticalAlign=top;spacingLeft=4;spacingRight=4;overflow=hidden;rotatable=0;points=[[0,0.5],[1,0.5]];portConstraint=eastwest;" vertex="1" parent="7hg7fwCNh3IDwbxx84Ut-226">
          <mxGeometry y="92.93333333333334" width="257" height="31" as="geometry" />
        </mxCell>
        <mxCell id="7hg7fwCNh3IDwbxx84Ut-230" value="+float quantidade_total" style="text;strokeColor=none;fillColor=none;align=left;verticalAlign=top;spacingLeft=4;spacingRight=4;overflow=hidden;rotatable=0;points=[[0,0.5],[1,0.5]];portConstraint=eastwest;" vertex="1" parent="7hg7fwCNh3IDwbxx84Ut-226">
          <mxGeometry y="123.93333333333334" width="257" height="31" as="geometry" />
        </mxCell>
        <mxCell id="7hg7fwCNh3IDwbxx84Ut-231" value="+float quantidade_diaria" style="text;strokeColor=none;fillColor=none;align=left;verticalAlign=top;spacingLeft=4;spacingRight=4;overflow=hidden;rotatable=0;points=[[0,0.5],[1,0.5]];portConstraint=eastwest;" vertex="1" parent="7hg7fwCNh3IDwbxx84Ut-226">
          <mxGeometry y="154.93333333333334" width="257" height="31" as="geometry" />
        </mxCell>
        <mxCell id="7hg7fwCNh3IDwbxx84Ut-232" value="+timestamp data_registro" style="text;strokeColor=none;fillColor=none;align=left;verticalAlign=top;spacingLeft=4;spacingRight=4;overflow=hidden;rotatable=0;points=[[0,0.5],[1,0.5]];portConstraint=eastwest;" vertex="1" parent="7hg7fwCNh3IDwbxx84Ut-226">
          <mxGeometry y="185.93333333333334" width="257" height="31" as="geometry" />
        </mxCell>
        <mxCell id="7hg7fwCNh3IDwbxx84Ut-233" style="line;strokeWidth=1;fillColor=none;align=left;verticalAlign=middle;spacingTop=-1;spacingLeft=3;spacingRight=3;rotatable=0;labelPosition=right;points=[];portConstraint=eastwest;strokeColor=inherit;" vertex="1" parent="7hg7fwCNh3IDwbxx84Ut-226">
          <mxGeometry y="216.93333333333334" width="257" height="15" as="geometry" />
        </mxCell>
        <mxCell id="7hg7fwCNh3IDwbxx84Ut-234" value="Metas" style="swimlane;fontStyle=1;align=center;verticalAlign=top;childLayout=stackLayout;horizontal=1;startSize=30.933333333333334;horizontalStack=0;resizeParent=1;resizeParentMax=0;resizeLast=0;collapsible=0;marginBottom=0;" vertex="1" parent="1">
          <mxGeometry x="10001" y="11387" width="231" height="231.93333333333334" as="geometry" />
        </mxCell>
        <mxCell id="7hg7fwCNh3IDwbxx84Ut-235" value="+int id" style="text;strokeColor=none;fillColor=none;align=left;verticalAlign=top;spacingLeft=4;spacingRight=4;overflow=hidden;rotatable=0;points=[[0,0.5],[1,0.5]];portConstraint=eastwest;" vertex="1" parent="7hg7fwCNh3IDwbxx84Ut-234">
          <mxGeometry y="30.933333333333334" width="231" height="31" as="geometry" />
        </mxCell>
        <mxCell id="7hg7fwCNh3IDwbxx84Ut-236" value="+int usuario_id" style="text;strokeColor=none;fillColor=none;align=left;verticalAlign=top;spacingLeft=4;spacingRight=4;overflow=hidden;rotatable=0;points=[[0,0.5],[1,0.5]];portConstraint=eastwest;" vertex="1" parent="7hg7fwCNh3IDwbxx84Ut-234">
          <mxGeometry y="61.93333333333334" width="231" height="31" as="geometry" />
        </mxCell>
        <mxCell id="7hg7fwCNh3IDwbxx84Ut-237" value="+string tipo_meta" style="text;strokeColor=none;fillColor=none;align=left;verticalAlign=top;spacingLeft=4;spacingRight=4;overflow=hidden;rotatable=0;points=[[0,0.5],[1,0.5]];portConstraint=eastwest;" vertex="1" parent="7hg7fwCNh3IDwbxx84Ut-234">
          <mxGeometry y="92.93333333333334" width="231" height="31" as="geometry" />
        </mxCell>
        <mxCell id="7hg7fwCNh3IDwbxx84Ut-238" value="+float objetivo" style="text;strokeColor=none;fillColor=none;align=left;verticalAlign=top;spacingLeft=4;spacingRight=4;overflow=hidden;rotatable=0;points=[[0,0.5],[1,0.5]];portConstraint=eastwest;" vertex="1" parent="7hg7fwCNh3IDwbxx84Ut-234">
          <mxGeometry y="123.93333333333334" width="231" height="31" as="geometry" />
        </mxCell>
        <mxCell id="7hg7fwCNh3IDwbxx84Ut-239" value="+float progresso" style="text;strokeColor=none;fillColor=none;align=left;verticalAlign=top;spacingLeft=4;spacingRight=4;overflow=hidden;rotatable=0;points=[[0,0.5],[1,0.5]];portConstraint=eastwest;" vertex="1" parent="7hg7fwCNh3IDwbxx84Ut-234">
          <mxGeometry y="154.93333333333334" width="231" height="31" as="geometry" />
        </mxCell>
        <mxCell id="7hg7fwCNh3IDwbxx84Ut-240" value="+timestamp data_registro" style="text;strokeColor=none;fillColor=none;align=left;verticalAlign=top;spacingLeft=4;spacingRight=4;overflow=hidden;rotatable=0;points=[[0,0.5],[1,0.5]];portConstraint=eastwest;" vertex="1" parent="7hg7fwCNh3IDwbxx84Ut-234">
          <mxGeometry y="185.93333333333334" width="231" height="31" as="geometry" />
        </mxCell>
        <mxCell id="7hg7fwCNh3IDwbxx84Ut-241" style="line;strokeWidth=1;fillColor=none;align=left;verticalAlign=middle;spacingTop=-1;spacingLeft=3;spacingRight=3;rotatable=0;labelPosition=right;points=[];portConstraint=eastwest;strokeColor=inherit;" vertex="1" parent="7hg7fwCNh3IDwbxx84Ut-234">
          <mxGeometry y="216.93333333333334" width="231" height="15" as="geometry" />
        </mxCell>
        <mxCell id="7hg7fwCNh3IDwbxx84Ut-242" value="LogMedidasCorpo" style="swimlane;fontStyle=1;align=center;verticalAlign=top;childLayout=stackLayout;horizontal=1;startSize=32;horizontalStack=0;resizeParent=1;resizeParentMax=0;resizeLast=0;collapsible=0;marginBottom=0;" vertex="1" parent="1">
          <mxGeometry x="5420" y="10774" width="306" height="208" as="geometry" />
        </mxCell>
        <mxCell id="7hg7fwCNh3IDwbxx84Ut-243" value="+int id" style="text;strokeColor=none;fillColor=none;align=left;verticalAlign=top;spacingLeft=4;spacingRight=4;overflow=hidden;rotatable=0;points=[[0,0.5],[1,0.5]];portConstraint=eastwest;" vertex="1" parent="7hg7fwCNh3IDwbxx84Ut-242">
          <mxGeometry y="32" width="306" height="32" as="geometry" />
        </mxCell>
        <mxCell id="7hg7fwCNh3IDwbxx84Ut-244" value="+int medida_corporal_id" style="text;strokeColor=none;fillColor=none;align=left;verticalAlign=top;spacingLeft=4;spacingRight=4;overflow=hidden;rotatable=0;points=[[0,0.5],[1,0.5]];portConstraint=eastwest;" vertex="1" parent="7hg7fwCNh3IDwbxx84Ut-242">
          <mxGeometry y="64" width="306" height="32" as="geometry" />
        </mxCell>
        <mxCell id="7hg7fwCNh3IDwbxx84Ut-245" value="+int usuario_id" style="text;strokeColor=none;fillColor=none;align=left;verticalAlign=top;spacingLeft=4;spacingRight=4;overflow=hidden;rotatable=0;points=[[0,0.5],[1,0.5]];portConstraint=eastwest;" vertex="1" parent="7hg7fwCNh3IDwbxx84Ut-242">
          <mxGeometry y="96" width="306" height="32" as="geometry" />
        </mxCell>
        <mxCell id="7hg7fwCNh3IDwbxx84Ut-246" value="+string operacao" style="text;strokeColor=none;fillColor=none;align=left;verticalAlign=top;spacingLeft=4;spacingRight=4;overflow=hidden;rotatable=0;points=[[0,0.5],[1,0.5]];portConstraint=eastwest;" vertex="1" parent="7hg7fwCNh3IDwbxx84Ut-242">
          <mxGeometry y="128" width="306" height="32" as="geometry" />
        </mxCell>
        <mxCell id="7hg7fwCNh3IDwbxx84Ut-247" value="+timestamp data_modificacao" style="text;strokeColor=none;fillColor=none;align=left;verticalAlign=top;spacingLeft=4;spacingRight=4;overflow=hidden;rotatable=0;points=[[0,0.5],[1,0.5]];portConstraint=eastwest;" vertex="1" parent="7hg7fwCNh3IDwbxx84Ut-242">
          <mxGeometry y="160" width="306" height="32" as="geometry" />
        </mxCell>
        <mxCell id="7hg7fwCNh3IDwbxx84Ut-248" style="line;strokeWidth=1;fillColor=none;align=left;verticalAlign=middle;spacingTop=-1;spacingLeft=3;spacingRight=3;rotatable=0;labelPosition=right;points=[];portConstraint=eastwest;strokeColor=inherit;" vertex="1" parent="7hg7fwCNh3IDwbxx84Ut-242">
          <mxGeometry y="192" width="306" height="16" as="geometry" />
        </mxCell>
        <mxCell id="7hg7fwCNh3IDwbxx84Ut-249" value="LogPeso" style="swimlane;fontStyle=1;align=center;verticalAlign=top;childLayout=stackLayout;horizontal=1;startSize=32;horizontalStack=0;resizeParent=1;resizeParentMax=0;resizeLast=0;collapsible=0;marginBottom=0;" vertex="1" parent="1">
          <mxGeometry x="6241" y="10774" width="271" height="208" as="geometry" />
        </mxCell>
        <mxCell id="7hg7fwCNh3IDwbxx84Ut-250" value="+int id" style="text;strokeColor=none;fillColor=none;align=left;verticalAlign=top;spacingLeft=4;spacingRight=4;overflow=hidden;rotatable=0;points=[[0,0.5],[1,0.5]];portConstraint=eastwest;" vertex="1" parent="7hg7fwCNh3IDwbxx84Ut-249">
          <mxGeometry y="32" width="271" height="32" as="geometry" />
        </mxCell>
        <mxCell id="7hg7fwCNh3IDwbxx84Ut-251" value="+int peso_id" style="text;strokeColor=none;fillColor=none;align=left;verticalAlign=top;spacingLeft=4;spacingRight=4;overflow=hidden;rotatable=0;points=[[0,0.5],[1,0.5]];portConstraint=eastwest;" vertex="1" parent="7hg7fwCNh3IDwbxx84Ut-249">
          <mxGeometry y="64" width="271" height="32" as="geometry" />
        </mxCell>
        <mxCell id="7hg7fwCNh3IDwbxx84Ut-252" value="+int usuario_id" style="text;strokeColor=none;fillColor=none;align=left;verticalAlign=top;spacingLeft=4;spacingRight=4;overflow=hidden;rotatable=0;points=[[0,0.5],[1,0.5]];portConstraint=eastwest;" vertex="1" parent="7hg7fwCNh3IDwbxx84Ut-249">
          <mxGeometry y="96" width="271" height="32" as="geometry" />
        </mxCell>
        <mxCell id="7hg7fwCNh3IDwbxx84Ut-253" value="+string operacao" style="text;strokeColor=none;fillColor=none;align=left;verticalAlign=top;spacingLeft=4;spacingRight=4;overflow=hidden;rotatable=0;points=[[0,0.5],[1,0.5]];portConstraint=eastwest;" vertex="1" parent="7hg7fwCNh3IDwbxx84Ut-249">
          <mxGeometry y="128" width="271" height="32" as="geometry" />
        </mxCell>
        <mxCell id="7hg7fwCNh3IDwbxx84Ut-254" value="+timestamp data_modificacao" style="text;strokeColor=none;fillColor=none;align=left;verticalAlign=top;spacingLeft=4;spacingRight=4;overflow=hidden;rotatable=0;points=[[0,0.5],[1,0.5]];portConstraint=eastwest;" vertex="1" parent="7hg7fwCNh3IDwbxx84Ut-249">
          <mxGeometry y="160" width="271" height="32" as="geometry" />
        </mxCell>
        <mxCell id="7hg7fwCNh3IDwbxx84Ut-255" style="line;strokeWidth=1;fillColor=none;align=left;verticalAlign=middle;spacingTop=-1;spacingLeft=3;spacingRight=3;rotatable=0;labelPosition=right;points=[];portConstraint=eastwest;strokeColor=inherit;" vertex="1" parent="7hg7fwCNh3IDwbxx84Ut-249">
          <mxGeometry y="192" width="271" height="16" as="geometry" />
        </mxCell>
        <mxCell id="7hg7fwCNh3IDwbxx84Ut-256" value="LogExercicios" style="swimlane;fontStyle=1;align=center;verticalAlign=top;childLayout=stackLayout;horizontal=1;startSize=32;horizontalStack=0;resizeParent=1;resizeParentMax=0;resizeLast=0;collapsible=0;marginBottom=0;" vertex="1" parent="1">
          <mxGeometry x="6562" y="10774" width="292" height="208" as="geometry" />
        </mxCell>
        <mxCell id="7hg7fwCNh3IDwbxx84Ut-257" value="+int id" style="text;strokeColor=none;fillColor=none;align=left;verticalAlign=top;spacingLeft=4;spacingRight=4;overflow=hidden;rotatable=0;points=[[0,0.5],[1,0.5]];portConstraint=eastwest;" vertex="1" parent="7hg7fwCNh3IDwbxx84Ut-256">
          <mxGeometry y="32" width="292" height="32" as="geometry" />
        </mxCell>
        <mxCell id="7hg7fwCNh3IDwbxx84Ut-258" value="+int exercicio_id" style="text;strokeColor=none;fillColor=none;align=left;verticalAlign=top;spacingLeft=4;spacingRight=4;overflow=hidden;rotatable=0;points=[[0,0.5],[1,0.5]];portConstraint=eastwest;" vertex="1" parent="7hg7fwCNh3IDwbxx84Ut-256">
          <mxGeometry y="64" width="292" height="32" as="geometry" />
        </mxCell>
        <mxCell id="7hg7fwCNh3IDwbxx84Ut-259" value="+int usuario_id" style="text;strokeColor=none;fillColor=none;align=left;verticalAlign=top;spacingLeft=4;spacingRight=4;overflow=hidden;rotatable=0;points=[[0,0.5],[1,0.5]];portConstraint=eastwest;" vertex="1" parent="7hg7fwCNh3IDwbxx84Ut-256">
          <mxGeometry y="96" width="292" height="32" as="geometry" />
        </mxCell>
        <mxCell id="7hg7fwCNh3IDwbxx84Ut-260" value="+string operacao" style="text;strokeColor=none;fillColor=none;align=left;verticalAlign=top;spacingLeft=4;spacingRight=4;overflow=hidden;rotatable=0;points=[[0,0.5],[1,0.5]];portConstraint=eastwest;" vertex="1" parent="7hg7fwCNh3IDwbxx84Ut-256">
          <mxGeometry y="128" width="292" height="32" as="geometry" />
        </mxCell>
        <mxCell id="7hg7fwCNh3IDwbxx84Ut-261" value="+timestamp data_modificacao" style="text;strokeColor=none;fillColor=none;align=left;verticalAlign=top;spacingLeft=4;spacingRight=4;overflow=hidden;rotatable=0;points=[[0,0.5],[1,0.5]];portConstraint=eastwest;" vertex="1" parent="7hg7fwCNh3IDwbxx84Ut-256">
          <mxGeometry y="160" width="292" height="32" as="geometry" />
        </mxCell>
        <mxCell id="7hg7fwCNh3IDwbxx84Ut-262" style="line;strokeWidth=1;fillColor=none;align=left;verticalAlign=middle;spacingTop=-1;spacingLeft=3;spacingRight=3;rotatable=0;labelPosition=right;points=[];portConstraint=eastwest;strokeColor=inherit;" vertex="1" parent="7hg7fwCNh3IDwbxx84Ut-256">
          <mxGeometry y="192" width="292" height="16" as="geometry" />
        </mxCell>
        <mxCell id="7hg7fwCNh3IDwbxx84Ut-263" value="LogAlimentacao" style="swimlane;fontStyle=1;align=center;verticalAlign=top;childLayout=stackLayout;horizontal=1;startSize=32;horizontalStack=0;resizeParent=1;resizeParentMax=0;resizeLast=0;collapsible=0;marginBottom=0;" vertex="1" parent="1">
          <mxGeometry x="8399" y="10774" width="300" height="208" as="geometry" />
        </mxCell>
        <mxCell id="7hg7fwCNh3IDwbxx84Ut-264" value="+int id" style="text;strokeColor=none;fillColor=none;align=left;verticalAlign=top;spacingLeft=4;spacingRight=4;overflow=hidden;rotatable=0;points=[[0,0.5],[1,0.5]];portConstraint=eastwest;" vertex="1" parent="7hg7fwCNh3IDwbxx84Ut-263">
          <mxGeometry y="32" width="300" height="32" as="geometry" />
        </mxCell>
        <mxCell id="7hg7fwCNh3IDwbxx84Ut-265" value="+int alimentacao_id" style="text;strokeColor=none;fillColor=none;align=left;verticalAlign=top;spacingLeft=4;spacingRight=4;overflow=hidden;rotatable=0;points=[[0,0.5],[1,0.5]];portConstraint=eastwest;" vertex="1" parent="7hg7fwCNh3IDwbxx84Ut-263">
          <mxGeometry y="64" width="300" height="32" as="geometry" />
        </mxCell>
        <mxCell id="7hg7fwCNh3IDwbxx84Ut-266" value="+int usuario_id" style="text;strokeColor=none;fillColor=none;align=left;verticalAlign=top;spacingLeft=4;spacingRight=4;overflow=hidden;rotatable=0;points=[[0,0.5],[1,0.5]];portConstraint=eastwest;" vertex="1" parent="7hg7fwCNh3IDwbxx84Ut-263">
          <mxGeometry y="96" width="300" height="32" as="geometry" />
        </mxCell>
        <mxCell id="7hg7fwCNh3IDwbxx84Ut-267" value="+string operacao" style="text;strokeColor=none;fillColor=none;align=left;verticalAlign=top;spacingLeft=4;spacingRight=4;overflow=hidden;rotatable=0;points=[[0,0.5],[1,0.5]];portConstraint=eastwest;" vertex="1" parent="7hg7fwCNh3IDwbxx84Ut-263">
          <mxGeometry y="128" width="300" height="32" as="geometry" />
        </mxCell>
        <mxCell id="7hg7fwCNh3IDwbxx84Ut-268" value="+timestamp data_modificacao" style="text;strokeColor=none;fillColor=none;align=left;verticalAlign=top;spacingLeft=4;spacingRight=4;overflow=hidden;rotatable=0;points=[[0,0.5],[1,0.5]];portConstraint=eastwest;" vertex="1" parent="7hg7fwCNh3IDwbxx84Ut-263">
          <mxGeometry y="160" width="300" height="32" as="geometry" />
        </mxCell>
        <mxCell id="7hg7fwCNh3IDwbxx84Ut-269" style="line;strokeWidth=1;fillColor=none;align=left;verticalAlign=middle;spacingTop=-1;spacingLeft=3;spacingRight=3;rotatable=0;labelPosition=right;points=[];portConstraint=eastwest;strokeColor=inherit;" vertex="1" parent="7hg7fwCNh3IDwbxx84Ut-263">
          <mxGeometry y="192" width="300" height="16" as="geometry" />
        </mxCell>
        <mxCell id="7hg7fwCNh3IDwbxx84Ut-270" value="LogAgua" style="swimlane;fontStyle=1;align=center;verticalAlign=top;childLayout=stackLayout;horizontal=1;startSize=32;horizontalStack=0;resizeParent=1;resizeParentMax=0;resizeLast=0;collapsible=0;marginBottom=0;" vertex="1" parent="1">
          <mxGeometry x="8749" y="10774" width="272" height="208" as="geometry" />
        </mxCell>
        <mxCell id="7hg7fwCNh3IDwbxx84Ut-271" value="+int id" style="text;strokeColor=none;fillColor=none;align=left;verticalAlign=top;spacingLeft=4;spacingRight=4;overflow=hidden;rotatable=0;points=[[0,0.5],[1,0.5]];portConstraint=eastwest;" vertex="1" parent="7hg7fwCNh3IDwbxx84Ut-270">
          <mxGeometry y="32" width="272" height="32" as="geometry" />
        </mxCell>
        <mxCell id="7hg7fwCNh3IDwbxx84Ut-272" value="+int agua_id" style="text;strokeColor=none;fillColor=none;align=left;verticalAlign=top;spacingLeft=4;spacingRight=4;overflow=hidden;rotatable=0;points=[[0,0.5],[1,0.5]];portConstraint=eastwest;" vertex="1" parent="7hg7fwCNh3IDwbxx84Ut-270">
          <mxGeometry y="64" width="272" height="32" as="geometry" />
        </mxCell>
        <mxCell id="7hg7fwCNh3IDwbxx84Ut-273" value="+int usuario_id" style="text;strokeColor=none;fillColor=none;align=left;verticalAlign=top;spacingLeft=4;spacingRight=4;overflow=hidden;rotatable=0;points=[[0,0.5],[1,0.5]];portConstraint=eastwest;" vertex="1" parent="7hg7fwCNh3IDwbxx84Ut-270">
          <mxGeometry y="96" width="272" height="32" as="geometry" />
        </mxCell>
        <mxCell id="7hg7fwCNh3IDwbxx84Ut-274" value="+string operacao" style="text;strokeColor=none;fillColor=none;align=left;verticalAlign=top;spacingLeft=4;spacingRight=4;overflow=hidden;rotatable=0;points=[[0,0.5],[1,0.5]];portConstraint=eastwest;" vertex="1" parent="7hg7fwCNh3IDwbxx84Ut-270">
          <mxGeometry y="128" width="272" height="32" as="geometry" />
        </mxCell>
        <mxCell id="7hg7fwCNh3IDwbxx84Ut-275" value="+timestamp data_modificacao" style="text;strokeColor=none;fillColor=none;align=left;verticalAlign=top;spacingLeft=4;spacingRight=4;overflow=hidden;rotatable=0;points=[[0,0.5],[1,0.5]];portConstraint=eastwest;" vertex="1" parent="7hg7fwCNh3IDwbxx84Ut-270">
          <mxGeometry y="160" width="272" height="32" as="geometry" />
        </mxCell>
        <mxCell id="7hg7fwCNh3IDwbxx84Ut-276" style="line;strokeWidth=1;fillColor=none;align=left;verticalAlign=middle;spacingTop=-1;spacingLeft=3;spacingRight=3;rotatable=0;labelPosition=right;points=[];portConstraint=eastwest;strokeColor=inherit;" vertex="1" parent="7hg7fwCNh3IDwbxx84Ut-270">
          <mxGeometry y="192" width="272" height="16" as="geometry" />
        </mxCell>
        <mxCell id="7hg7fwCNh3IDwbxx84Ut-277" value="LogSono" style="swimlane;fontStyle=1;align=center;verticalAlign=top;childLayout=stackLayout;horizontal=1;startSize=32;horizontalStack=0;resizeParent=1;resizeParentMax=0;resizeLast=0;collapsible=0;marginBottom=0;" vertex="1" parent="1">
          <mxGeometry x="9071" y="10774" width="272" height="208" as="geometry" />
        </mxCell>
        <mxCell id="7hg7fwCNh3IDwbxx84Ut-278" value="+int id" style="text;strokeColor=none;fillColor=none;align=left;verticalAlign=top;spacingLeft=4;spacingRight=4;overflow=hidden;rotatable=0;points=[[0,0.5],[1,0.5]];portConstraint=eastwest;" vertex="1" parent="7hg7fwCNh3IDwbxx84Ut-277">
          <mxGeometry y="32" width="272" height="32" as="geometry" />
        </mxCell>
        <mxCell id="7hg7fwCNh3IDwbxx84Ut-279" value="+int sono_id" style="text;strokeColor=none;fillColor=none;align=left;verticalAlign=top;spacingLeft=4;spacingRight=4;overflow=hidden;rotatable=0;points=[[0,0.5],[1,0.5]];portConstraint=eastwest;" vertex="1" parent="7hg7fwCNh3IDwbxx84Ut-277">
          <mxGeometry y="64" width="272" height="32" as="geometry" />
        </mxCell>
        <mxCell id="7hg7fwCNh3IDwbxx84Ut-280" value="+int usuario_id" style="text;strokeColor=none;fillColor=none;align=left;verticalAlign=top;spacingLeft=4;spacingRight=4;overflow=hidden;rotatable=0;points=[[0,0.5],[1,0.5]];portConstraint=eastwest;" vertex="1" parent="7hg7fwCNh3IDwbxx84Ut-277">
          <mxGeometry y="96" width="272" height="32" as="geometry" />
        </mxCell>
        <mxCell id="7hg7fwCNh3IDwbxx84Ut-281" value="+string operacao" style="text;strokeColor=none;fillColor=none;align=left;verticalAlign=top;spacingLeft=4;spacingRight=4;overflow=hidden;rotatable=0;points=[[0,0.5],[1,0.5]];portConstraint=eastwest;" vertex="1" parent="7hg7fwCNh3IDwbxx84Ut-277">
          <mxGeometry y="128" width="272" height="32" as="geometry" />
        </mxCell>
        <mxCell id="7hg7fwCNh3IDwbxx84Ut-282" value="+timestamp data_modificacao" style="text;strokeColor=none;fillColor=none;align=left;verticalAlign=top;spacingLeft=4;spacingRight=4;overflow=hidden;rotatable=0;points=[[0,0.5],[1,0.5]];portConstraint=eastwest;" vertex="1" parent="7hg7fwCNh3IDwbxx84Ut-277">
          <mxGeometry y="160" width="272" height="32" as="geometry" />
        </mxCell>
        <mxCell id="7hg7fwCNh3IDwbxx84Ut-283" style="line;strokeWidth=1;fillColor=none;align=left;verticalAlign=middle;spacingTop=-1;spacingLeft=3;spacingRight=3;rotatable=0;labelPosition=right;points=[];portConstraint=eastwest;strokeColor=inherit;" vertex="1" parent="7hg7fwCNh3IDwbxx84Ut-277">
          <mxGeometry y="192" width="272" height="16" as="geometry" />
        </mxCell>
        <mxCell id="7hg7fwCNh3IDwbxx84Ut-284" value="LogSuplementos" style="swimlane;fontStyle=1;align=center;verticalAlign=top;childLayout=stackLayout;horizontal=1;startSize=32;horizontalStack=0;resizeParent=1;resizeParentMax=0;resizeLast=0;collapsible=0;marginBottom=0;" vertex="1" parent="1">
          <mxGeometry x="9420" y="10774" width="302" height="208" as="geometry" />
        </mxCell>
        <mxCell id="7hg7fwCNh3IDwbxx84Ut-285" value="+int id" style="text;strokeColor=none;fillColor=none;align=left;verticalAlign=top;spacingLeft=4;spacingRight=4;overflow=hidden;rotatable=0;points=[[0,0.5],[1,0.5]];portConstraint=eastwest;" vertex="1" parent="7hg7fwCNh3IDwbxx84Ut-284">
          <mxGeometry y="32" width="302" height="32" as="geometry" />
        </mxCell>
        <mxCell id="7hg7fwCNh3IDwbxx84Ut-286" value="+int suplemento_id" style="text;strokeColor=none;fillColor=none;align=left;verticalAlign=top;spacingLeft=4;spacingRight=4;overflow=hidden;rotatable=0;points=[[0,0.5],[1,0.5]];portConstraint=eastwest;" vertex="1" parent="7hg7fwCNh3IDwbxx84Ut-284">
          <mxGeometry y="64" width="302" height="32" as="geometry" />
        </mxCell>
        <mxCell id="7hg7fwCNh3IDwbxx84Ut-287" value="+int usuario_id" style="text;strokeColor=none;fillColor=none;align=left;verticalAlign=top;spacingLeft=4;spacingRight=4;overflow=hidden;rotatable=0;points=[[0,0.5],[1,0.5]];portConstraint=eastwest;" vertex="1" parent="7hg7fwCNh3IDwbxx84Ut-284">
          <mxGeometry y="96" width="302" height="32" as="geometry" />
        </mxCell>
        <mxCell id="7hg7fwCNh3IDwbxx84Ut-288" value="+string operacao" style="text;strokeColor=none;fillColor=none;align=left;verticalAlign=top;spacingLeft=4;spacingRight=4;overflow=hidden;rotatable=0;points=[[0,0.5],[1,0.5]];portConstraint=eastwest;" vertex="1" parent="7hg7fwCNh3IDwbxx84Ut-284">
          <mxGeometry y="128" width="302" height="32" as="geometry" />
        </mxCell>
        <mxCell id="7hg7fwCNh3IDwbxx84Ut-289" value="+timestamp data_modificacao" style="text;strokeColor=none;fillColor=none;align=left;verticalAlign=top;spacingLeft=4;spacingRight=4;overflow=hidden;rotatable=0;points=[[0,0.5],[1,0.5]];portConstraint=eastwest;" vertex="1" parent="7hg7fwCNh3IDwbxx84Ut-284">
          <mxGeometry y="160" width="302" height="32" as="geometry" />
        </mxCell>
        <mxCell id="7hg7fwCNh3IDwbxx84Ut-290" style="line;strokeWidth=1;fillColor=none;align=left;verticalAlign=middle;spacingTop=-1;spacingLeft=3;spacingRight=3;rotatable=0;labelPosition=right;points=[];portConstraint=eastwest;strokeColor=inherit;" vertex="1" parent="7hg7fwCNh3IDwbxx84Ut-284">
          <mxGeometry y="192" width="302" height="16" as="geometry" />
        </mxCell>
        <mxCell id="7hg7fwCNh3IDwbxx84Ut-291" value="LogMetas" style="swimlane;fontStyle=1;align=center;verticalAlign=top;childLayout=stackLayout;horizontal=1;startSize=32;horizontalStack=0;resizeParent=1;resizeParentMax=0;resizeLast=0;collapsible=0;marginBottom=0;" vertex="1" parent="1">
          <mxGeometry x="9772" y="10774" width="275" height="208" as="geometry" />
        </mxCell>
        <mxCell id="7hg7fwCNh3IDwbxx84Ut-292" value="+int id" style="text;strokeColor=none;fillColor=none;align=left;verticalAlign=top;spacingLeft=4;spacingRight=4;overflow=hidden;rotatable=0;points=[[0,0.5],[1,0.5]];portConstraint=eastwest;" vertex="1" parent="7hg7fwCNh3IDwbxx84Ut-291">
          <mxGeometry y="32" width="275" height="32" as="geometry" />
        </mxCell>
        <mxCell id="7hg7fwCNh3IDwbxx84Ut-293" value="+int meta_id" style="text;strokeColor=none;fillColor=none;align=left;verticalAlign=top;spacingLeft=4;spacingRight=4;overflow=hidden;rotatable=0;points=[[0,0.5],[1,0.5]];portConstraint=eastwest;" vertex="1" parent="7hg7fwCNh3IDwbxx84Ut-291">
          <mxGeometry y="64" width="275" height="32" as="geometry" />
        </mxCell>
        <mxCell id="7hg7fwCNh3IDwbxx84Ut-294" value="+int usuario_id" style="text;strokeColor=none;fillColor=none;align=left;verticalAlign=top;spacingLeft=4;spacingRight=4;overflow=hidden;rotatable=0;points=[[0,0.5],[1,0.5]];portConstraint=eastwest;" vertex="1" parent="7hg7fwCNh3IDwbxx84Ut-291">
          <mxGeometry y="96" width="275" height="32" as="geometry" />
        </mxCell>
        <mxCell id="7hg7fwCNh3IDwbxx84Ut-295" value="+string operacao" style="text;strokeColor=none;fillColor=none;align=left;verticalAlign=top;spacingLeft=4;spacingRight=4;overflow=hidden;rotatable=0;points=[[0,0.5],[1,0.5]];portConstraint=eastwest;" vertex="1" parent="7hg7fwCNh3IDwbxx84Ut-291">
          <mxGeometry y="128" width="275" height="32" as="geometry" />
        </mxCell>
        <mxCell id="7hg7fwCNh3IDwbxx84Ut-296" value="+timestamp data_modificacao" style="text;strokeColor=none;fillColor=none;align=left;verticalAlign=top;spacingLeft=4;spacingRight=4;overflow=hidden;rotatable=0;points=[[0,0.5],[1,0.5]];portConstraint=eastwest;" vertex="1" parent="7hg7fwCNh3IDwbxx84Ut-291">
          <mxGeometry y="160" width="275" height="32" as="geometry" />
        </mxCell>
        <mxCell id="7hg7fwCNh3IDwbxx84Ut-297" style="line;strokeWidth=1;fillColor=none;align=left;verticalAlign=middle;spacingTop=-1;spacingLeft=3;spacingRight=3;rotatable=0;labelPosition=right;points=[];portConstraint=eastwest;strokeColor=inherit;" vertex="1" parent="7hg7fwCNh3IDwbxx84Ut-291">
          <mxGeometry y="192" width="275" height="16" as="geometry" />
        </mxCell>
        <mxCell id="7hg7fwCNh3IDwbxx84Ut-298" value="Possui" style="curved=1;startArrow=none;endArrow=open;endSize=12;exitX=0;exitY=0.63;entryX=1;entryY=0.3;rounded=0;" edge="1" parent="1" source="7hg7fwCNh3IDwbxx84Ut-1" target="7hg7fwCNh3IDwbxx84Ut-30">
          <mxGeometry relative="1" as="geometry">
            <Array as="points">
              <mxPoint x="6934" y="11291" />
            </Array>
          </mxGeometry>
        </mxCell>
        <mxCell id="7hg7fwCNh3IDwbxx84Ut-299" value="1" style="edgeLabel;resizable=0;labelBackgroundColor=none;fontSize=12;align=left;verticalAlign=bottom;" vertex="1" parent="7hg7fwCNh3IDwbxx84Ut-298">
          <mxGeometry x="1" relative="1" as="geometry" />
        </mxCell>
        <mxCell id="7hg7fwCNh3IDwbxx84Ut-300" value="Criar/Editar/Excluir" style="curved=1;startArrow=none;endArrow=open;endSize=12;exitX=0;exitY=0.91;entryX=1;entryY=0.47;rounded=0;" edge="1" parent="1" source="7hg7fwCNh3IDwbxx84Ut-1" target="7hg7fwCNh3IDwbxx84Ut-37">
          <mxGeometry relative="1" as="geometry">
            <Array as="points">
              <mxPoint x="7362" y="11291" />
            </Array>
          </mxGeometry>
        </mxCell>
        <mxCell id="7hg7fwCNh3IDwbxx84Ut-301" value="1" style="edgeLabel;resizable=0;labelBackgroundColor=none;fontSize=12;align=left;verticalAlign=bottom;" vertex="1" parent="7hg7fwCNh3IDwbxx84Ut-300">
          <mxGeometry x="1" relative="1" as="geometry" />
        </mxCell>
        <mxCell id="7hg7fwCNh3IDwbxx84Ut-302" value="Tem" style="curved=1;startArrow=none;endArrow=open;endSize=12;exitX=0;exitY=0.97;entryX=0;entryY=0.3;rounded=0;" edge="1" parent="1" source="7hg7fwCNh3IDwbxx84Ut-37" target="7hg7fwCNh3IDwbxx84Ut-49">
          <mxGeometry relative="1" as="geometry">
            <Array as="points">
              <mxPoint x="4047" y="11724" />
            </Array>
          </mxGeometry>
        </mxCell>
        <mxCell id="7hg7fwCNh3IDwbxx84Ut-303" value="1" style="edgeLabel;resizable=0;labelBackgroundColor=none;fontSize=12;align=left;verticalAlign=top;" vertex="1" parent="7hg7fwCNh3IDwbxx84Ut-302">
          <mxGeometry x="-1" relative="1" as="geometry" />
        </mxCell>
        <mxCell id="7hg7fwCNh3IDwbxx84Ut-304" value="0..*" style="edgeLabel;resizable=0;labelBackgroundColor=none;fontSize=12;align=right;verticalAlign=bottom;" vertex="1" parent="7hg7fwCNh3IDwbxx84Ut-302">
          <mxGeometry x="1" relative="1" as="geometry" />
        </mxCell>
        <mxCell id="7hg7fwCNh3IDwbxx84Ut-305" value="Contém" style="curved=1;startArrow=none;endArrow=open;endSize=12;exitX=0.32;exitY=1;entryX=0;entryY=0.41;rounded=0;" edge="1" parent="1" source="7hg7fwCNh3IDwbxx84Ut-37" target="7hg7fwCNh3IDwbxx84Ut-56">
          <mxGeometry relative="1" as="geometry">
            <Array as="points">
              <mxPoint x="4158" y="11724" />
            </Array>
          </mxGeometry>
        </mxCell>
        <mxCell id="7hg7fwCNh3IDwbxx84Ut-306" value="1" style="edgeLabel;resizable=0;labelBackgroundColor=none;fontSize=12;align=left;verticalAlign=top;" vertex="1" parent="7hg7fwCNh3IDwbxx84Ut-305">
          <mxGeometry x="-1" relative="1" as="geometry" />
        </mxCell>
        <mxCell id="7hg7fwCNh3IDwbxx84Ut-307" value="0..*" style="edgeLabel;resizable=0;labelBackgroundColor=none;fontSize=12;align=right;verticalAlign=bottom;" vertex="1" parent="7hg7fwCNh3IDwbxx84Ut-305">
          <mxGeometry x="1" relative="1" as="geometry" />
        </mxCell>
        <mxCell id="7hg7fwCNh3IDwbxx84Ut-308" value="Tem Personalização" style="curved=1;startArrow=none;endArrow=open;endSize=12;exitX=1;exitY=0.81;entryX=0;entryY=0.42;rounded=0;" edge="1" parent="1" source="7hg7fwCNh3IDwbxx84Ut-37" target="7hg7fwCNh3IDwbxx84Ut-64">
          <mxGeometry relative="1" as="geometry">
            <Array as="points">
              <mxPoint x="4485" y="11724" />
            </Array>
          </mxGeometry>
        </mxCell>
        <mxCell id="7hg7fwCNh3IDwbxx84Ut-309" value="1" style="edgeLabel;resizable=0;labelBackgroundColor=none;fontSize=12;align=left;verticalAlign=top;" vertex="1" parent="7hg7fwCNh3IDwbxx84Ut-308">
          <mxGeometry x="-1" relative="1" as="geometry" />
        </mxCell>
        <mxCell id="7hg7fwCNh3IDwbxx84Ut-310" value="0..*" style="edgeLabel;resizable=0;labelBackgroundColor=none;fontSize=12;align=right;verticalAlign=bottom;" vertex="1" parent="7hg7fwCNh3IDwbxx84Ut-308">
          <mxGeometry x="1" relative="1" as="geometry" />
        </mxCell>
        <mxCell id="7hg7fwCNh3IDwbxx84Ut-311" value="Log" style="curved=1;startArrow=none;endArrow=open;endSize=12;exitX=0.5;exitY=1;entryX=0;entryY=0.23;rounded=0;" edge="1" parent="1" source="7hg7fwCNh3IDwbxx84Ut-71" target="7hg7fwCNh3IDwbxx84Ut-37">
          <mxGeometry relative="1" as="geometry">
            <Array as="points">
              <mxPoint x="3916" y="11291" />
            </Array>
          </mxGeometry>
        </mxCell>
        <mxCell id="7hg7fwCNh3IDwbxx84Ut-312" value="1" style="edgeLabel;resizable=0;labelBackgroundColor=none;fontSize=12;align=right;verticalAlign=bottom;" vertex="1" parent="7hg7fwCNh3IDwbxx84Ut-311">
          <mxGeometry x="1" relative="1" as="geometry" />
        </mxCell>
        <mxCell id="7hg7fwCNh3IDwbxx84Ut-313" value="Log" style="curved=1;startArrow=none;endArrow=open;endSize=12;exitX=0.5;exitY=1;entryX=0.57;entryY=0;rounded=0;" edge="1" parent="1" source="7hg7fwCNh3IDwbxx84Ut-81" target="7hg7fwCNh3IDwbxx84Ut-37">
          <mxGeometry relative="1" as="geometry">
            <Array as="points">
              <mxPoint x="4240" y="11291" />
            </Array>
          </mxGeometry>
        </mxCell>
        <mxCell id="7hg7fwCNh3IDwbxx84Ut-314" value="1" style="edgeLabel;resizable=0;labelBackgroundColor=none;fontSize=12;align=left;verticalAlign=bottom;" vertex="1" parent="7hg7fwCNh3IDwbxx84Ut-313">
          <mxGeometry x="1" relative="1" as="geometry" />
        </mxCell>
        <mxCell id="7hg7fwCNh3IDwbxx84Ut-315" value="Log" style="curved=1;startArrow=none;endArrow=open;endSize=12;exitX=0.5;exitY=1;entryX=1;entryY=0.25;rounded=0;" edge="1" parent="1" source="7hg7fwCNh3IDwbxx84Ut-90" target="7hg7fwCNh3IDwbxx84Ut-49">
          <mxGeometry relative="1" as="geometry">
            <Array as="points">
              <mxPoint x="4858" y="11724" />
            </Array>
          </mxGeometry>
        </mxCell>
        <mxCell id="7hg7fwCNh3IDwbxx84Ut-316" value="1" style="edgeLabel;resizable=0;labelBackgroundColor=none;fontSize=12;align=left;verticalAlign=bottom;" vertex="1" parent="7hg7fwCNh3IDwbxx84Ut-315">
          <mxGeometry x="1" relative="1" as="geometry" />
        </mxCell>
        <mxCell id="7hg7fwCNh3IDwbxx84Ut-317" value="Log" style="curved=1;startArrow=none;endArrow=open;endSize=12;exitX=0.5;exitY=1;entryX=1;entryY=0.04;rounded=0;" edge="1" parent="1" source="7hg7fwCNh3IDwbxx84Ut-98" target="7hg7fwCNh3IDwbxx84Ut-56">
          <mxGeometry relative="1" as="geometry">
            <Array as="points">
              <mxPoint x="5190" y="11724" />
            </Array>
          </mxGeometry>
        </mxCell>
        <mxCell id="7hg7fwCNh3IDwbxx84Ut-318" value="1" style="edgeLabel;resizable=0;labelBackgroundColor=none;fontSize=12;align=left;verticalAlign=bottom;" vertex="1" parent="7hg7fwCNh3IDwbxx84Ut-317">
          <mxGeometry x="1" relative="1" as="geometry" />
        </mxCell>
        <mxCell id="7hg7fwCNh3IDwbxx84Ut-319" value="Log" style="curved=1;startArrow=none;endArrow=open;endSize=12;exitX=0.5;exitY=1;entryX=1;entryY=0.19;rounded=0;" edge="1" parent="1" source="7hg7fwCNh3IDwbxx84Ut-108" target="7hg7fwCNh3IDwbxx84Ut-64">
          <mxGeometry relative="1" as="geometry">
            <Array as="points">
              <mxPoint x="5519" y="11724" />
            </Array>
          </mxGeometry>
        </mxCell>
        <mxCell id="7hg7fwCNh3IDwbxx84Ut-320" value="1" style="edgeLabel;resizable=0;labelBackgroundColor=none;fontSize=12;align=left;verticalAlign=bottom;" vertex="1" parent="7hg7fwCNh3IDwbxx84Ut-319">
          <mxGeometry x="1" relative="1" as="geometry" />
        </mxCell>
        <mxCell id="7hg7fwCNh3IDwbxx84Ut-321" value="Possui" style="curved=1;startArrow=none;endArrow=open;endSize=12;exitX=0.17;exitY=1;entryX=0.59;entryY=0;rounded=0;" edge="1" parent="1" source="7hg7fwCNh3IDwbxx84Ut-1" target="7hg7fwCNh3IDwbxx84Ut-118">
          <mxGeometry relative="1" as="geometry">
            <Array as="points">
              <mxPoint x="7456" y="11291" />
              <mxPoint x="7456" y="11724" />
            </Array>
          </mxGeometry>
        </mxCell>
        <mxCell id="7hg7fwCNh3IDwbxx84Ut-322" value="1" style="edgeLabel;resizable=0;labelBackgroundColor=none;fontSize=12;align=left;verticalAlign=bottom;" vertex="1" parent="7hg7fwCNh3IDwbxx84Ut-321">
          <mxGeometry x="1" relative="1" as="geometry" />
        </mxCell>
        <mxCell id="7hg7fwCNh3IDwbxx84Ut-323" value="Registra" style="curved=1;startArrow=none;endArrow=open;endSize=12;exitX=0.31;exitY=1;entryX=0;entryY=0.46;rounded=0;" edge="1" parent="1" source="7hg7fwCNh3IDwbxx84Ut-1" target="7hg7fwCNh3IDwbxx84Ut-127">
          <mxGeometry relative="1" as="geometry">
            <Array as="points">
              <mxPoint x="7507" y="11291" />
            </Array>
          </mxGeometry>
        </mxCell>
        <mxCell id="7hg7fwCNh3IDwbxx84Ut-324" value="1" style="edgeLabel;resizable=0;labelBackgroundColor=none;fontSize=12;align=right;verticalAlign=bottom;" vertex="1" parent="7hg7fwCNh3IDwbxx84Ut-323">
          <mxGeometry x="1" relative="1" as="geometry" />
        </mxCell>
        <mxCell id="7hg7fwCNh3IDwbxx84Ut-325" value="Define" style="curved=1;startArrow=none;endArrow=open;endSize=12;exitX=0.54;exitY=1;entryX=1;entryY=0.44;rounded=0;" edge="1" parent="1" source="7hg7fwCNh3IDwbxx84Ut-1" target="7hg7fwCNh3IDwbxx84Ut-149">
          <mxGeometry relative="1" as="geometry">
            <Array as="points">
              <mxPoint x="7584" y="11291" />
            </Array>
          </mxGeometry>
        </mxCell>
        <mxCell id="7hg7fwCNh3IDwbxx84Ut-326" value="1" style="edgeLabel;resizable=0;labelBackgroundColor=none;fontSize=12;align=left;verticalAlign=bottom;" vertex="1" parent="7hg7fwCNh3IDwbxx84Ut-325">
          <mxGeometry x="1" relative="1" as="geometry" />
        </mxCell>
        <mxCell id="7hg7fwCNh3IDwbxx84Ut-327" value="Cria" style="curved=1;startArrow=none;endArrow=open;endSize=12;exitX=0.67;exitY=1;entryX=0;entryY=0.47;rounded=0;" edge="1" parent="1" source="7hg7fwCNh3IDwbxx84Ut-1" target="7hg7fwCNh3IDwbxx84Ut-140">
          <mxGeometry relative="1" as="geometry">
            <Array as="points">
              <mxPoint x="7629" y="11291" />
              <mxPoint x="7629" y="11724" />
            </Array>
          </mxGeometry>
        </mxCell>
        <mxCell id="7hg7fwCNh3IDwbxx84Ut-328" value="1" style="edgeLabel;resizable=0;labelBackgroundColor=none;fontSize=12;align=right;verticalAlign=bottom;" vertex="1" parent="7hg7fwCNh3IDwbxx84Ut-327">
          <mxGeometry x="1" relative="1" as="geometry" />
        </mxCell>
        <mxCell id="7hg7fwCNh3IDwbxx84Ut-329" value="Usa" style="curved=1;startArrow=none;endArrow=open;endSize=12;exitX=0;exitY=0.56;entryX=1;entryY=0.39;rounded=0;" edge="1" parent="1" source="7hg7fwCNh3IDwbxx84Ut-127" target="7hg7fwCNh3IDwbxx84Ut-118">
          <mxGeometry relative="1" as="geometry">
            <Array as="points">
              <mxPoint x="8206" y="11724" />
            </Array>
          </mxGeometry>
        </mxCell>
        <mxCell id="7hg7fwCNh3IDwbxx84Ut-330" value="1" style="edgeLabel;resizable=0;labelBackgroundColor=none;fontSize=12;align=left;verticalAlign=bottom;" vertex="1" parent="7hg7fwCNh3IDwbxx84Ut-329">
          <mxGeometry x="1" relative="1" as="geometry" />
        </mxCell>
        <mxCell id="7hg7fwCNh3IDwbxx84Ut-331" value="Pode ter" style="curved=1;startArrow=none;endArrow=open;endSize=12;exitX=1;exitY=0.6;entryX=1;entryY=0.34;rounded=0;" edge="1" parent="1" source="7hg7fwCNh3IDwbxx84Ut-127" target="7hg7fwCNh3IDwbxx84Ut-140">
          <mxGeometry relative="1" as="geometry">
            <Array as="points">
              <mxPoint x="10369" y="11724" />
            </Array>
          </mxGeometry>
        </mxCell>
        <mxCell id="7hg7fwCNh3IDwbxx84Ut-332" value="0..*" style="edgeLabel;resizable=0;labelBackgroundColor=none;fontSize=12;align=right;verticalAlign=bottom;" vertex="1" parent="7hg7fwCNh3IDwbxx84Ut-331">
          <mxGeometry x="1" relative="1" as="geometry" />
        </mxCell>
        <mxCell id="7hg7fwCNh3IDwbxx84Ut-333" value="Relaciona" style="curved=1;startArrow=none;endArrow=open;endSize=12;exitX=0.4;exitY=1;entryX=1;entryY=0.43;rounded=0;" edge="1" parent="1" source="7hg7fwCNh3IDwbxx84Ut-145" target="7hg7fwCNh3IDwbxx84Ut-127">
          <mxGeometry relative="1" as="geometry">
            <Array as="points">
              <mxPoint x="10650" y="11291" />
            </Array>
          </mxGeometry>
        </mxCell>
        <mxCell id="7hg7fwCNh3IDwbxx84Ut-334" value="1" style="edgeLabel;resizable=0;labelBackgroundColor=none;fontSize=12;align=left;verticalAlign=bottom;" vertex="1" parent="7hg7fwCNh3IDwbxx84Ut-333">
          <mxGeometry x="1" relative="1" as="geometry" />
        </mxCell>
        <mxCell id="7hg7fwCNh3IDwbxx84Ut-335" value="Relaciona" style="curved=1;startArrow=none;endArrow=open;endSize=12;exitX=0.52;exitY=1;entryX=1;entryY=0.41;rounded=0;" edge="1" parent="1" source="7hg7fwCNh3IDwbxx84Ut-145" target="7hg7fwCNh3IDwbxx84Ut-140">
          <mxGeometry relative="1" as="geometry">
            <Array as="points">
              <mxPoint x="10794" y="11291" />
              <mxPoint x="10794" y="11724" />
            </Array>
          </mxGeometry>
        </mxCell>
        <mxCell id="7hg7fwCNh3IDwbxx84Ut-336" value="1" style="edgeLabel;resizable=0;labelBackgroundColor=none;fontSize=12;align=left;verticalAlign=bottom;" vertex="1" parent="7hg7fwCNh3IDwbxx84Ut-335">
          <mxGeometry x="1" relative="1" as="geometry" />
        </mxCell>
        <mxCell id="7hg7fwCNh3IDwbxx84Ut-337" value="Log" style="curved=1;startArrow=none;endArrow=open;endSize=12;exitX=0.5;exitY=1;entryX=1;entryY=0.39;rounded=0;" edge="1" parent="1" source="7hg7fwCNh3IDwbxx84Ut-159" target="7hg7fwCNh3IDwbxx84Ut-127">
          <mxGeometry relative="1" as="geometry">
            <Array as="points">
              <mxPoint x="10245" y="11291" />
            </Array>
          </mxGeometry>
        </mxCell>
        <mxCell id="7hg7fwCNh3IDwbxx84Ut-338" value="1" style="edgeLabel;resizable=0;labelBackgroundColor=none;fontSize=12;align=left;verticalAlign=bottom;" vertex="1" parent="7hg7fwCNh3IDwbxx84Ut-337">
          <mxGeometry x="1" relative="1" as="geometry" />
        </mxCell>
        <mxCell id="7hg7fwCNh3IDwbxx84Ut-339" value="Log" style="curved=1;startArrow=none;endArrow=open;endSize=12;exitX=0.5;exitY=1;entryX=0;entryY=0.41;rounded=0;" edge="1" parent="1" source="7hg7fwCNh3IDwbxx84Ut-166" target="7hg7fwCNh3IDwbxx84Ut-118">
          <mxGeometry relative="1" as="geometry">
            <Array as="points">
              <mxPoint x="6524" y="11724" />
            </Array>
          </mxGeometry>
        </mxCell>
        <mxCell id="7hg7fwCNh3IDwbxx84Ut-340" value="1" style="edgeLabel;resizable=0;labelBackgroundColor=none;fontSize=12;align=right;verticalAlign=bottom;" vertex="1" parent="7hg7fwCNh3IDwbxx84Ut-339">
          <mxGeometry x="1" relative="1" as="geometry" />
        </mxCell>
        <mxCell id="7hg7fwCNh3IDwbxx84Ut-341" value="Log" style="curved=1;startArrow=none;endArrow=open;endSize=12;exitX=0.5;exitY=1;entryX=0;entryY=0.34;rounded=0;" edge="1" parent="1" source="7hg7fwCNh3IDwbxx84Ut-173" target="7hg7fwCNh3IDwbxx84Ut-149">
          <mxGeometry relative="1" as="geometry">
            <Array as="points">
              <mxPoint x="5200" y="11291" />
            </Array>
          </mxGeometry>
        </mxCell>
        <mxCell id="7hg7fwCNh3IDwbxx84Ut-342" value="1" style="edgeLabel;resizable=0;labelBackgroundColor=none;fontSize=12;align=right;verticalAlign=bottom;" vertex="1" parent="7hg7fwCNh3IDwbxx84Ut-341">
          <mxGeometry x="1" relative="1" as="geometry" />
        </mxCell>
        <mxCell id="7hg7fwCNh3IDwbxx84Ut-343" value="Log" style="curved=1;startArrow=none;endArrow=open;endSize=12;exitX=0.37;exitY=1;entryX=1;entryY=0.36;rounded=0;" edge="1" parent="1" source="7hg7fwCNh3IDwbxx84Ut-242" target="7hg7fwCNh3IDwbxx84Ut-180">
          <mxGeometry relative="1" as="geometry">
            <Array as="points">
              <mxPoint x="5421" y="11291" />
            </Array>
          </mxGeometry>
        </mxCell>
        <mxCell id="7hg7fwCNh3IDwbxx84Ut-344" value="1" style="edgeLabel;resizable=0;labelBackgroundColor=none;fontSize=12;align=left;verticalAlign=bottom;" vertex="1" parent="7hg7fwCNh3IDwbxx84Ut-343">
          <mxGeometry x="1" relative="1" as="geometry" />
        </mxCell>
        <mxCell id="7hg7fwCNh3IDwbxx84Ut-345" value="Log" style="curved=1;startArrow=none;endArrow=open;endSize=12;exitX=0.23;exitY=1;entryX=0;entryY=0.32;rounded=0;" edge="1" parent="1" source="7hg7fwCNh3IDwbxx84Ut-249" target="7hg7fwCNh3IDwbxx84Ut-188">
          <mxGeometry relative="1" as="geometry">
            <Array as="points">
              <mxPoint x="6104" y="11291" />
            </Array>
          </mxGeometry>
        </mxCell>
        <mxCell id="7hg7fwCNh3IDwbxx84Ut-346" value="1" style="edgeLabel;resizable=0;labelBackgroundColor=none;fontSize=12;align=right;verticalAlign=bottom;" vertex="1" parent="7hg7fwCNh3IDwbxx84Ut-345">
          <mxGeometry x="1" relative="1" as="geometry" />
        </mxCell>
        <mxCell id="7hg7fwCNh3IDwbxx84Ut-347" value="Log" style="curved=1;startArrow=none;endArrow=open;endSize=12;exitX=0.39;exitY=1;entryX=0;entryY=0.32;rounded=0;" edge="1" parent="1" source="7hg7fwCNh3IDwbxx84Ut-256" target="7hg7fwCNh3IDwbxx84Ut-194">
          <mxGeometry relative="1" as="geometry">
            <Array as="points">
              <mxPoint x="6588" y="11291" />
            </Array>
          </mxGeometry>
        </mxCell>
        <mxCell id="7hg7fwCNh3IDwbxx84Ut-348" value="1" style="edgeLabel;resizable=0;labelBackgroundColor=none;fontSize=12;align=right;verticalAlign=bottom;" vertex="1" parent="7hg7fwCNh3IDwbxx84Ut-347">
          <mxGeometry x="1" relative="1" as="geometry" />
        </mxCell>
        <mxCell id="7hg7fwCNh3IDwbxx84Ut-349" value="Log" style="curved=1;startArrow=none;endArrow=open;endSize=12;exitX=0.37;exitY=1;entryX=1;entryY=0.09;rounded=0;" edge="1" parent="1" source="7hg7fwCNh3IDwbxx84Ut-263" target="7hg7fwCNh3IDwbxx84Ut-203">
          <mxGeometry relative="1" as="geometry">
            <Array as="points">
              <mxPoint x="8401" y="11291" />
            </Array>
          </mxGeometry>
        </mxCell>
        <mxCell id="7hg7fwCNh3IDwbxx84Ut-350" value="1" style="edgeLabel;resizable=0;labelBackgroundColor=none;fontSize=12;align=left;verticalAlign=bottom;" vertex="1" parent="7hg7fwCNh3IDwbxx84Ut-349">
          <mxGeometry x="1" relative="1" as="geometry" />
        </mxCell>
        <mxCell id="7hg7fwCNh3IDwbxx84Ut-351" value="Log" style="curved=1;startArrow=none;endArrow=open;endSize=12;exitX=0.36;exitY=1;entryX=1;entryY=0;rounded=0;" edge="1" parent="1" source="7hg7fwCNh3IDwbxx84Ut-270" target="7hg7fwCNh3IDwbxx84Ut-212">
          <mxGeometry relative="1" as="geometry">
            <Array as="points">
              <mxPoint x="8741" y="11291" />
            </Array>
          </mxGeometry>
        </mxCell>
        <mxCell id="7hg7fwCNh3IDwbxx84Ut-352" value="1" style="edgeLabel;resizable=0;labelBackgroundColor=none;fontSize=12;align=left;verticalAlign=bottom;" vertex="1" parent="7hg7fwCNh3IDwbxx84Ut-351">
          <mxGeometry x="1" relative="1" as="geometry" />
        </mxCell>
        <mxCell id="7hg7fwCNh3IDwbxx84Ut-353" value="Log" style="curved=1;startArrow=none;endArrow=open;endSize=12;exitX=0.37;exitY=1;entryX=1;entryY=0.1;rounded=0;" edge="1" parent="1" source="7hg7fwCNh3IDwbxx84Ut-277" target="7hg7fwCNh3IDwbxx84Ut-218">
          <mxGeometry relative="1" as="geometry">
            <Array as="points">
              <mxPoint x="9071" y="11291" />
            </Array>
          </mxGeometry>
        </mxCell>
        <mxCell id="7hg7fwCNh3IDwbxx84Ut-354" value="1" style="edgeLabel;resizable=0;labelBackgroundColor=none;fontSize=12;align=left;verticalAlign=bottom;" vertex="1" parent="7hg7fwCNh3IDwbxx84Ut-353">
          <mxGeometry x="1" relative="1" as="geometry" />
        </mxCell>
        <mxCell id="7hg7fwCNh3IDwbxx84Ut-355" value="Log" style="curved=1;startArrow=none;endArrow=open;endSize=12;exitX=0.48;exitY=1;entryX=0;entryY=0.08;rounded=0;" edge="1" parent="1" source="7hg7fwCNh3IDwbxx84Ut-284" target="7hg7fwCNh3IDwbxx84Ut-226">
          <mxGeometry relative="1" as="geometry">
            <Array as="points">
              <mxPoint x="9546" y="11291" />
            </Array>
          </mxGeometry>
        </mxCell>
        <mxCell id="7hg7fwCNh3IDwbxx84Ut-356" value="1" style="edgeLabel;resizable=0;labelBackgroundColor=none;fontSize=12;align=left;verticalAlign=bottom;" vertex="1" parent="7hg7fwCNh3IDwbxx84Ut-355">
          <mxGeometry x="1" relative="1" as="geometry" />
        </mxCell>
        <mxCell id="7hg7fwCNh3IDwbxx84Ut-357" value="Log" style="curved=1;startArrow=none;endArrow=open;endSize=12;exitX=0.45;exitY=1;entryX=0;entryY=0.09;rounded=0;" edge="1" parent="1" source="7hg7fwCNh3IDwbxx84Ut-291" target="7hg7fwCNh3IDwbxx84Ut-234">
          <mxGeometry relative="1" as="geometry">
            <Array as="points">
              <mxPoint x="9863" y="11291" />
            </Array>
          </mxGeometry>
        </mxCell>
        <mxCell id="7hg7fwCNh3IDwbxx84Ut-358" value="1" style="edgeLabel;resizable=0;labelBackgroundColor=none;fontSize=12;align=left;verticalAlign=bottom;" vertex="1" parent="7hg7fwCNh3IDwbxx84Ut-357">
          <mxGeometry x="1" relative="1" as="geometry" />
        </mxCell>
        <mxCell id="7hg7fwCNh3IDwbxx84Ut-359" value="Mede" style="curved=1;startArrow=none;endArrow=open;endSize=12;exitX=0.79;exitY=1;entryX=1;entryY=0.46;rounded=0;" edge="1" parent="1" source="7hg7fwCNh3IDwbxx84Ut-1" target="7hg7fwCNh3IDwbxx84Ut-180">
          <mxGeometry relative="1" as="geometry">
            <Array as="points">
              <mxPoint x="7670" y="11291" />
            </Array>
          </mxGeometry>
        </mxCell>
        <mxCell id="7hg7fwCNh3IDwbxx84Ut-360" value="1" style="edgeLabel;resizable=0;labelBackgroundColor=none;fontSize=12;align=left;verticalAlign=bottom;" vertex="1" parent="7hg7fwCNh3IDwbxx84Ut-359">
          <mxGeometry x="1" relative="1" as="geometry" />
        </mxCell>
        <mxCell id="7hg7fwCNh3IDwbxx84Ut-361" value="Mede" style="curved=1;startArrow=none;endArrow=open;endSize=12;exitX=0.98;exitY=1;entryX=1;entryY=0.36;rounded=0;" edge="1" parent="1" source="7hg7fwCNh3IDwbxx84Ut-1" target="7hg7fwCNh3IDwbxx84Ut-188">
          <mxGeometry relative="1" as="geometry">
            <Array as="points">
              <mxPoint x="7733" y="11291" />
            </Array>
          </mxGeometry>
        </mxCell>
        <mxCell id="7hg7fwCNh3IDwbxx84Ut-362" value="1" style="edgeLabel;resizable=0;labelBackgroundColor=none;fontSize=12;align=left;verticalAlign=bottom;" vertex="1" parent="7hg7fwCNh3IDwbxx84Ut-361">
          <mxGeometry x="1" relative="1" as="geometry" />
        </mxCell>
        <mxCell id="7hg7fwCNh3IDwbxx84Ut-363" value="Treina" style="curved=1;startArrow=none;endArrow=open;endSize=12;exitX=1;exitY=0.87;entryX=1;entryY=0.34;rounded=0;" edge="1" parent="1" source="7hg7fwCNh3IDwbxx84Ut-1" target="7hg7fwCNh3IDwbxx84Ut-194">
          <mxGeometry relative="1" as="geometry">
            <Array as="points">
              <mxPoint x="7800" y="11291" />
            </Array>
          </mxGeometry>
        </mxCell>
        <mxCell id="7hg7fwCNh3IDwbxx84Ut-364" value="1" style="edgeLabel;resizable=0;labelBackgroundColor=none;fontSize=12;align=left;verticalAlign=bottom;" vertex="1" parent="7hg7fwCNh3IDwbxx84Ut-363">
          <mxGeometry x="1" relative="1" as="geometry" />
        </mxCell>
        <mxCell id="7hg7fwCNh3IDwbxx84Ut-365" value="Consome" style="curved=1;startArrow=none;endArrow=open;endSize=12;exitX=1;exitY=0.78;entryX=0;entryY=0.11;rounded=0;" edge="1" parent="1" source="7hg7fwCNh3IDwbxx84Ut-1" target="7hg7fwCNh3IDwbxx84Ut-203">
          <mxGeometry relative="1" as="geometry">
            <Array as="points">
              <mxPoint x="7879" y="11291" />
            </Array>
          </mxGeometry>
        </mxCell>
        <mxCell id="7hg7fwCNh3IDwbxx84Ut-366" value="1" style="edgeLabel;resizable=0;labelBackgroundColor=none;fontSize=12;align=right;verticalAlign=bottom;" vertex="1" parent="7hg7fwCNh3IDwbxx84Ut-365">
          <mxGeometry x="1" relative="1" as="geometry" />
        </mxCell>
        <mxCell id="7hg7fwCNh3IDwbxx84Ut-367" value="Bebe" style="curved=1;startArrow=none;endArrow=open;endSize=12;exitX=1;exitY=0.67;entryX=0;entryY=0.2;rounded=0;" edge="1" parent="1" source="7hg7fwCNh3IDwbxx84Ut-1" target="7hg7fwCNh3IDwbxx84Ut-212">
          <mxGeometry relative="1" as="geometry">
            <Array as="points">
              <mxPoint x="8062" y="11291" />
            </Array>
          </mxGeometry>
        </mxCell>
        <mxCell id="7hg7fwCNh3IDwbxx84Ut-368" value="1" style="edgeLabel;resizable=0;labelBackgroundColor=none;fontSize=12;align=right;verticalAlign=bottom;" vertex="1" parent="7hg7fwCNh3IDwbxx84Ut-367">
          <mxGeometry x="1" relative="1" as="geometry" />
        </mxCell>
        <mxCell id="7hg7fwCNh3IDwbxx84Ut-369" value="Dorme" style="curved=1;startArrow=none;endArrow=open;endSize=12;exitX=1;exitY=0.64;entryX=0;entryY=0.34;rounded=0;" edge="1" parent="1" source="7hg7fwCNh3IDwbxx84Ut-1" target="7hg7fwCNh3IDwbxx84Ut-218">
          <mxGeometry relative="1" as="geometry">
            <Array as="points">
              <mxPoint x="8161" y="11291" />
            </Array>
          </mxGeometry>
        </mxCell>
        <mxCell id="7hg7fwCNh3IDwbxx84Ut-370" value="1" style="edgeLabel;resizable=0;labelBackgroundColor=none;fontSize=12;align=right;verticalAlign=bottom;" vertex="1" parent="7hg7fwCNh3IDwbxx84Ut-369">
          <mxGeometry x="1" relative="1" as="geometry" />
        </mxCell>
        <mxCell id="7hg7fwCNh3IDwbxx84Ut-371" value="Suplementa" style="curved=1;startArrow=none;endArrow=open;endSize=12;exitX=1;exitY=0.63;entryX=0;entryY=0.43;rounded=0;" edge="1" parent="1" source="7hg7fwCNh3IDwbxx84Ut-1" target="7hg7fwCNh3IDwbxx84Ut-226">
          <mxGeometry relative="1" as="geometry">
            <Array as="points">
              <mxPoint x="8251" y="11291" />
            </Array>
          </mxGeometry>
        </mxCell>
        <mxCell id="7hg7fwCNh3IDwbxx84Ut-372" value="1" style="edgeLabel;resizable=0;labelBackgroundColor=none;fontSize=12;align=right;verticalAlign=bottom;" vertex="1" parent="7hg7fwCNh3IDwbxx84Ut-371">
          <mxGeometry x="1" relative="1" as="geometry" />
        </mxCell>
        <mxCell id="7hg7fwCNh3IDwbxx84Ut-373" value="Define" style="curved=1;startArrow=none;endArrow=open;endSize=12;exitX=1;exitY=0.61;entryX=0;entryY=0.44;rounded=0;" edge="1" parent="1" source="7hg7fwCNh3IDwbxx84Ut-1" target="7hg7fwCNh3IDwbxx84Ut-234">
          <mxGeometry relative="1" as="geometry">
            <Array as="points">
              <mxPoint x="8341" y="11291" />
            </Array>
          </mxGeometry>
        </mxCell>
        <mxCell id="7hg7fwCNh3IDwbxx84Ut-374" value="1" style="edgeLabel;resizable=0;labelBackgroundColor=none;fontSize=12;align=right;verticalAlign=bottom;" vertex="1" parent="7hg7fwCNh3IDwbxx84Ut-373">
          <mxGeometry x="1" relative="1" as="geometry" />
        </mxCell>
        <mxCell id="7hg7fwCNh3IDwbxx84Ut-375" value="Log" style="curved=1;startArrow=none;endArrow=open;endSize=12;exitX=0.52;exitY=1;entryX=1;entryY=0.39;rounded=0;" edge="1" parent="1" source="7hg7fwCNh3IDwbxx84Ut-242" target="7hg7fwCNh3IDwbxx84Ut-180">
          <mxGeometry relative="1" as="geometry">
            <Array as="points">
              <mxPoint x="5597" y="11291" />
            </Array>
          </mxGeometry>
        </mxCell>
        <mxCell id="7hg7fwCNh3IDwbxx84Ut-376" value="1" style="edgeLabel;resizable=0;labelBackgroundColor=none;fontSize=12;align=left;verticalAlign=bottom;" vertex="1" parent="7hg7fwCNh3IDwbxx84Ut-375">
          <mxGeometry x="1" relative="1" as="geometry" />
        </mxCell>
        <mxCell id="7hg7fwCNh3IDwbxx84Ut-377" value="Log" style="curved=1;startArrow=none;endArrow=open;endSize=12;exitX=0.66;exitY=1;entryX=0;entryY=0.06;rounded=0;" edge="1" parent="1" source="7hg7fwCNh3IDwbxx84Ut-249" target="7hg7fwCNh3IDwbxx84Ut-188">
          <mxGeometry relative="1" as="geometry">
            <Array as="points">
              <mxPoint x="6539" y="11291" />
            </Array>
          </mxGeometry>
        </mxCell>
        <mxCell id="7hg7fwCNh3IDwbxx84Ut-378" value="1" style="edgeLabel;resizable=0;labelBackgroundColor=none;fontSize=12;align=right;verticalAlign=bottom;" vertex="1" parent="7hg7fwCNh3IDwbxx84Ut-377">
          <mxGeometry x="1" relative="1" as="geometry" />
        </mxCell>
        <mxCell id="7hg7fwCNh3IDwbxx84Ut-379" value="Log" style="curved=1;startArrow=none;endArrow=open;endSize=12;exitX=0.65;exitY=1;entryX=0;entryY=0.15;rounded=0;" edge="1" parent="1" source="7hg7fwCNh3IDwbxx84Ut-256" target="7hg7fwCNh3IDwbxx84Ut-194">
          <mxGeometry relative="1" as="geometry">
            <Array as="points">
              <mxPoint x="6876" y="11291" />
            </Array>
          </mxGeometry>
        </mxCell>
        <mxCell id="7hg7fwCNh3IDwbxx84Ut-380" value="1" style="edgeLabel;resizable=0;labelBackgroundColor=none;fontSize=12;align=right;verticalAlign=bottom;" vertex="1" parent="7hg7fwCNh3IDwbxx84Ut-379">
          <mxGeometry x="1" relative="1" as="geometry" />
        </mxCell>
        <mxCell id="7hg7fwCNh3IDwbxx84Ut-381" value="Log" style="curved=1;startArrow=none;endArrow=open;endSize=12;exitX=0.63;exitY=1;entryX=1;entryY=0.31;rounded=0;" edge="1" parent="1" source="7hg7fwCNh3IDwbxx84Ut-263" target="7hg7fwCNh3IDwbxx84Ut-203">
          <mxGeometry relative="1" as="geometry">
            <Array as="points">
              <mxPoint x="8693" y="11291" />
            </Array>
          </mxGeometry>
        </mxCell>
        <mxCell id="7hg7fwCNh3IDwbxx84Ut-382" value="1" style="edgeLabel;resizable=0;labelBackgroundColor=none;fontSize=12;align=left;verticalAlign=bottom;" vertex="1" parent="7hg7fwCNh3IDwbxx84Ut-381">
          <mxGeometry x="1" relative="1" as="geometry" />
        </mxCell>
        <mxCell id="7hg7fwCNh3IDwbxx84Ut-383" value="Log" style="curved=1;startArrow=none;endArrow=open;endSize=12;exitX=0.63;exitY=1;entryX=1;entryY=0.26;rounded=0;" edge="1" parent="1" source="7hg7fwCNh3IDwbxx84Ut-270" target="7hg7fwCNh3IDwbxx84Ut-212">
          <mxGeometry relative="1" as="geometry">
            <Array as="points">
              <mxPoint x="9022" y="11291" />
            </Array>
          </mxGeometry>
        </mxCell>
        <mxCell id="7hg7fwCNh3IDwbxx84Ut-384" value="1" style="edgeLabel;resizable=0;labelBackgroundColor=none;fontSize=12;align=left;verticalAlign=bottom;" vertex="1" parent="7hg7fwCNh3IDwbxx84Ut-383">
          <mxGeometry x="1" relative="1" as="geometry" />
        </mxCell>
        <mxCell id="7hg7fwCNh3IDwbxx84Ut-385" value="Log" style="curved=1;startArrow=none;endArrow=open;endSize=12;exitX=0.64;exitY=1;entryX=1;entryY=0.31;rounded=0;" edge="1" parent="1" source="7hg7fwCNh3IDwbxx84Ut-277" target="7hg7fwCNh3IDwbxx84Ut-218">
          <mxGeometry relative="1" as="geometry">
            <Array as="points">
              <mxPoint x="9351" y="11291" />
            </Array>
          </mxGeometry>
        </mxCell>
        <mxCell id="7hg7fwCNh3IDwbxx84Ut-386" value="1" style="edgeLabel;resizable=0;labelBackgroundColor=none;fontSize=12;align=left;verticalAlign=bottom;" vertex="1" parent="7hg7fwCNh3IDwbxx84Ut-385">
          <mxGeometry x="1" relative="1" as="geometry" />
        </mxCell>
        <mxCell id="7hg7fwCNh3IDwbxx84Ut-387" value="Log" style="curved=1;startArrow=none;endArrow=open;endSize=12;exitX=0.63;exitY=1;entryX=0.27;entryY=0;rounded=0;" edge="1" parent="1" source="7hg7fwCNh3IDwbxx84Ut-284" target="7hg7fwCNh3IDwbxx84Ut-226">
          <mxGeometry relative="1" as="geometry">
            <Array as="points">
              <mxPoint x="9716" y="11291" />
            </Array>
          </mxGeometry>
        </mxCell>
        <mxCell id="7hg7fwCNh3IDwbxx84Ut-388" value="1" style="edgeLabel;resizable=0;labelBackgroundColor=none;fontSize=12;align=left;verticalAlign=bottom;" vertex="1" parent="7hg7fwCNh3IDwbxx84Ut-387">
          <mxGeometry x="1" relative="1" as="geometry" />
        </mxCell>
        <mxCell id="7hg7fwCNh3IDwbxx84Ut-389" value="Log" style="curved=1;startArrow=none;endArrow=open;endSize=12;exitX=0.64;exitY=1;entryX=0.35;entryY=0;rounded=0;" edge="1" parent="1" source="7hg7fwCNh3IDwbxx84Ut-291" target="7hg7fwCNh3IDwbxx84Ut-234">
          <mxGeometry relative="1" as="geometry">
            <Array as="points">
              <mxPoint x="10053" y="11291" />
            </Array>
          </mxGeometry>
        </mxCell>
        <mxCell id="7hg7fwCNh3IDwbxx84Ut-390" value="1" style="edgeLabel;resizable=0;labelBackgroundColor=none;fontSize=12;align=left;verticalAlign=bottom;" vertex="1" parent="7hg7fwCNh3IDwbxx84Ut-389">
          <mxGeometry x="1" relative="1" as="geometry" />
        </mxCell>
      </root>
    </mxGraphModel>
  </diagram>
</mxfile>
